<svg id="Layer_1" data-name="Layer 1" xmlns="http://www.w3.org/2000/svg" xmlns:xlink="http://www.w3.org/1999/xlink" viewBox="0 0 493.73 811.76">
  <defs>
    <style>
      .cls-1 {
        fill: #001F48;
      }
    </style>
  </defs>
  <g>
    <path class="cls-1" d="M851.68,37q0,86.43-.07,172.88,0,92.17,0,184.37v6.15H832.77c0-2.13-.1-4.23,0-6.33,1.53-29.92-8-56.47-24.92-80.65C789,286.4,763,269.86,731,262.91c-9.88-2.15-20.11-4.08-30.13-3.84A134.07,134.07,0,0,0,653,268.58a132.34,132.34,0,0,0-50.45,36.14A129.12,129.12,0,0,0,573,365.79a141.68,141.68,0,0,0-2.07,26c-.21,38-.15,76-.07,113.92,0,16.6,4.3,32.22,10.71,47.5,7.88,18.8,20,34.46,35.15,47.58,17.06,14.75,36.73,25,59.23,28.74,9.69,1.61,19.61,3.24,29.35,2.87,28.87-1.08,55.07-10.25,77.78-28.57,15.72-12.69,28.48-27.8,37.07-46.14,6.26-13.37,10.78-27.31,11.62-42.24.47-8.41,1.1-16.82,1.68-25.5h17.34c0,9.16.67,18.27-.19,27.22a176.57,176.57,0,0,1-5.11,26.89c-4.21,16.29-11.9,31-21.61,44.72-17.41,24.59-40.58,41.69-68.43,52.62A146.75,146.75,0,0,1,714,650.64c-39.09,3.34-73.86-7.48-104.66-31.25C580.05,596.77,561.84,567,555,530.57a147.42,147.42,0,0,1-2.88-25.87q-.45-58.71-.06-117.42c.29-34.06,11.66-64.28,32.84-91a146.24,146.24,0,0,1,52.76-41.67c13.93-6.59,28.5-11.3,44-12.72,7-.64,14.09-2.09,21.09-1.86,34.1,1.15,65.14,11.15,92.24,32.53a154.37,154.37,0,0,1,36.12,41.22c.29.48.7.89,1.66,2.09,0-17.21-.68-33.51.23-49.73.62-10.92-2.64-17.93-11.59-24.71-18.45-14-38.09-25.37-60-32.5a193.08,193.08,0,0,0-51-9.31,191.12,191.12,0,0,0-78.68,13.11c-18,6.93-34.16,16.93-49.31,28.85a185.94,185.94,0,0,0-39.35,42.62c-15.13,22.49-24.44,47.3-29.37,74-3.61,19.61-2.45,39.25-2.77,58.9-.41,25.42-1.29,50.85-.86,76.25.5,30,5,59.31,17.94,86.86a206.27,206.27,0,0,0,29.46,45.57,187.72,187.72,0,0,0,66,49.62,171.41,171.41,0,0,0,55,15.15c9.17.89,18.41,2.19,27.57,1.87a194.5,194.5,0,0,0,69.11-14.88,190.77,190.77,0,0,0,67.58-47.53c22.39-24.47,37.87-52.8,44.89-85.35,2.09-9.72,3-19.73,4-29.64.85-8.2,1.06-16.45,1.57-25h18.32c0,8.21.52,16.5-.13,24.71-.75,9.44-1.67,19-4,28.15a419.77,419.77,0,0,1-13.28,42.35c-6.83,18.22-17.65,34.33-30.07,49.16-16.9,20.18-36.37,37.39-59.66,50.31-21.27,11.8-44,18.94-67.59,23.53-7.55,1.46-15.36,1.77-23.07,2.12s-15.39.14-23.09.06c-23.05-.23-45-5.83-66.38-13.92-21-7.94-39.91-19.53-57.21-33.65C548.77,648,533.9,630,521.77,609.83c-11.61-19.31-20.28-39.88-25-62-1.61-7.49-2.47-15.14-3.73-22.71a12.33,12.33,0,0,0-1-2.48V368.78a6.91,6.91,0,0,0,1-2c1.07-7.11,1.76-14.29,3.12-21.34a186.88,186.88,0,0,1,17.63-50.61,215.26,215.26,0,0,1,46.92-61.32A203.37,203.37,0,0,1,597.11,207c33.06-18.63,68.83-27.2,106.59-27.93a108.08,108.08,0,0,1,13.78,1c6.83.74,13.74,1.24,20.44,2.66,11.9,2.53,23.66,5.68,35.83,8.66V37h18q0,79.17-.13,158.33c0,3.15,1.31,4.75,3.95,6.1,4.65,2.36,9.28,4.84,13.69,7.64,7.78,5,15.4,10.16,23.45,15.51V37Z" transform="translate(-492 -31)"/>
    <path class="cls-1" d="M911.62,37q0,85.67-.07,171.34,0,92.91,0,185.82v6.21H892.71V43.49c0-2.16-.05-4.33-.07-6.49Z" transform="translate(-492 -31)"/>
    <path class="cls-1" d="M927.61,423.74c-3,7-6.11,13.87-9,20.89-3.14,7.69-5.94,15.52-9.16,23.18a5.83,5.83,0,0,1-3.72,2.71,15.2,15.2,0,0,1-6.44,0c-1.47-.33-3.41-1.48-3.92-2.75-6-15-11.77-30-17.57-45.09-.16-.41.08-1,.15-1.66h11.49l13.17,34.83c3.63-9.65,7-18.21,10.05-26.85,2.9-8.11,2.78-8.15,11.42-8.18,1.17,0,2.33-.05,3.5-.07Z" transform="translate(-492 -31)"/>
    <path class="cls-1" d="M774,490H791.7c2,24.94-3.44,47.36-19,67.19-14.48,18.48-33.53,29.36-56.25,33.14-26.17,4.35-50-2.16-71-18.65-17.28-13.54-27.42-31.37-32.14-52.5A57.16,57.16,0,0,1,612,506.93c-.09-40.63-.25-81.26,0-121.89.12-18.22,6.52-34.6,17.37-49.12,13.83-18.52,32.24-30.46,54.89-34.58,25.78-4.68,50,.16,71.33,16,16.77,12.47,28.07,28.88,33.27,49.2a118.58,118.58,0,0,1,2.68,16.91c.59,5.53.65,11.11.95,16.94H774.32c-.5-4.89-1.28-9.74-1.45-14.62-1-30.11-23.75-59.65-57-65.82-36.55-6.78-69.13,12.26-81.69,47.52-2.41,6.79-3.08,14.45-3.21,21.74-.63,35.4-1.06,70.8-1,106.21a98,98,0,0,0,3.73,25.62c6.94,25.05,23.85,40.91,48.3,48.52,23.91,7.44,45.44,1.75,64.92-13.45,15-11.73,22.73-27.55,25.73-45.88C773.73,503.77,773.55,497.09,774,490Z" transform="translate(-492 -31)"/>
    <path class="cls-1" d="M815,470.63c4.52-10.54,8.81-20.58,13.15-30.59,2.4-5.54,5-11,7.32-16.58,1.8-4.31,6-2.93,8.94-3.33,1.77-.24,4.91,2.11,5.78,4.05,6.17,13.67,11.92,27.54,17.78,41.35.62,1.48,1.06,3,1.78,5.11-2.7,0-5-.18-7.24,0-3.11.3-4.51-1.38-6.27-3.69a12.12,12.12,0,0,0-6.9-4.17c-3.88-.68-8,0-11.95-.22-4.17-.22-7.84-.28-8.93,5.13-.24,1.19-2.55,2.54-4.06,2.77C821.48,470.94,818.49,470.63,815,470.63Zm35.35-17.06-7.81-19-7.77,19Z" transform="translate(-492 -31)"/>
    <path class="cls-1" d="M765.42,455.34c7,3.79,13.32,7.29,20.66,4.55,1.82-.67,3.15-2.68,4.7-4.08-1.49-1.44-2.75-3.46-4.54-4.2-4.34-1.78-9.08-2.61-13.36-4.49-6.87-3-10.68-8.73-9.9-13.76a15.81,15.81,0,0,1,14.32-13.42c8.1-.79,16.14-.34,23.38,5.41-1.06,2.64-2.19,5.42-3.12,7.74-5.89-.86-11.3-1.92-16.75-2.25-1.62-.1-3.37,1.85-5,2.87,1.33,1.38,2.43,3.33,4.06,4.05,4.29,1.89,8.91,3.05,13.24,4.87,7.66,3.23,10.06,7.28,9.59,15.33-.34,5.69-3.85,9.27-10.92,11.76-10.93,3.85-20.73,1.66-30.28-5C762.79,461.56,764,458.63,765.42,455.34Z" transform="translate(-492 -31)"/>
  </g>
</svg>
