<svg id="Layer_1" data-name="Layer 1" xmlns="http://www.w3.org/2000/svg" viewBox="0 0 199.96 379.25">
  <defs>
    <style>
      .cls-1 {
        fill: #27211f;
      }

      .cls-2 {
        fill: #6a6965;
      }
    </style>
  </defs>
  <g>
    <path className="cls-1" d="M683.8,468.39l-10.29-1.13c-4-10.23.07-21.3-3.16-31.54-1.75-5.53-.63-10.2,1.51-15.36,8-19.14,17.21-38,22.72-57.84,5.15-18.59,13.53-35.65,19.93-53.58,5.29-14.86,16.42-27.07,19.33-42.92,2-11.15,8.54-21,9.37-32.44l2.94-8.29c4.31,1.66,4.91,5.21,4.85,9.23a111,111,0,0,0,.17,14.13c2,18,3.42,36.13,3.19,54.27-.22,17.79,5.49,34.9,4.84,52.81-.5,14.06,4.1,28,2.83,42.25-.13,1.47.65,3,.94,4.53,2.43,12.85,5.44,25.64,6.9,38.6.44,4,1,6.26,4.17,8.27,6.78,4.29,5.27,11.28,4,17.06-1.13,5.32-6.91,2.08-10.55,2.95-2.31.55-5.06-1.22-8.12,2.19,11.13,0,21.21.77,31.12-.22,9.27-.92,13.5,4.55,11.33,11.05-3.08,9.22,1.71,11.47,8.69,13.82-12.3,6.89-25.78.19-37.66,6.34,12.48,3.26,24.28-2.68,38.11-.47-6,3.16-10.62,4.74-15.64,4.73-9.48,0-18.61,2.31-27.86,3.88-2,.34-5.19-.23-4.89,2.86.23,2.43,3,2.79,5.33,2.78a45.76,45.76,0,0,0,7.51-.23c10.16-1.75,20.41-3.22,30.37-5.77,4.93-1.27,7.36-.38,7.85,4.35.58,5.53-4.07,3.59-6.57,3.68a238.15,238.15,0,0,0-40.3,4.78c7.94,2.36,14.66,3.71,21.57,1.81,6.58-1.8,13.12-4.65,21.49-.19-17.45,5.66-34.66,5.06-51.86,10,3.71,3.23,6.32,2.55,8.72,2.63,13.81.47,27.52-.13,41-3.63,2.15-.56,5.45-1.49,6.44,1.83,1.15,3.86-2.75,3.28-4.67,4.39-4.35,2.53-9.82-.23-14.86,3.08,4.24,3.23,9.32.81,14.44,3.12-16.27,9-34,6.2-49.56,12.11,15.79,3,31.16,1.74,46.41-2.27,3.17-.83,8.21-4.05,9,2.09.7,5.4-5.63,5.11-8.27,5-9.29-.46-18,3.17-27.3,2.71-5.46-.27-11,1.76-16.54,2.76,12.68,4,25.27,2.41,37.81,2.4-6.88,5.2-14.71,4.18-22.23,4.67-9.91.64-20.31.42-28.45,6.76-4.72,3.67-9.32,4.5-14.65,4.44-15.51-.19-31,0-46.5-.84-4-.2-8.61-2.5-11.62-5.28-3.88-3.56,2.48-4.59,3-7.12.41-1.95-.69-4.22-1.12-6.34,10.74-2.57,7.23-8.75,3.79-14.92-.26-3.22,1.56-5,4-6.81,6.4-4.64,9.69-10.14,2.48-16.72-2.28-2.08-.9-2.37.36-4,5.67-7.3,4.6-14.28-1.87-20.63,9.57-3.66,16.44-17.05,11.7-25.59-2.9-5.24-1.36-7.57,4.26-11C695.58,468.16,689.65,466.48,683.8,468.39Zm97.39,14.2c-1.42,0-3.09-.35-4.54.06-6,1.69-3.92,7.48-4.25,11.06s3.58,1.36,5.73.74a10.74,10.74,0,0,1,7.28.76c2.24.91,5.28.55,4.53-2.38C788.78,488.33,790,481,781.19,482.59Zm-27.1-11.79-.27-.84H720.74v.84Z" transform="translate(-654.25 -214.66)"/>
    <path className="cls-2" d="M677.16,580.76c3,2.78,7.61,5.08,11.62,5.28,15.47.79,31,.65,46.5.84,5.33.06,9.93-.77,14.65-4.44,8.14-6.34,18.54-6.12,28.45-6.76,7.52-.49,15.35.53,22.23-4.67-12.54,0-25.13,1.63-37.81-2.4,5.51-1,11.08-3,16.54-2.76,9.29.46,18-3.17,27.3-2.71,2.64.13,9,.42,8.27-5-.79-6.14-5.83-2.92-9-2.09-15.25,4-30.62,5.23-46.41,2.27,15.55-5.91,33.29-3.06,49.56-12.11-5.12-2.31-10.2.11-14.44-3.12,5-3.31,10.51-.55,14.86-3.08,1.92-1.11,5.82-.53,4.67-4.39-1-3.32-4.29-2.39-6.44-1.83-13.48,3.5-27.19,4.1-41,3.63-2.4-.08-5,.6-8.72-2.63,17.2-5,34.41-4.37,51.86-10-8.37-4.46-14.91-1.61-21.49.19-6.91,1.9-13.63.55-21.57-1.81a238.15,238.15,0,0,1,40.3-4.78c2.5-.09,7.15,1.85,6.57-3.68-.49-4.73-2.92-5.62-7.85-4.35-10,2.55-20.21,4-30.37,5.77a45.76,45.76,0,0,1-7.51.23c-2.28,0-5.1-.35-5.33-2.78-.3-3.09,2.87-2.52,4.89-2.86,9.25-1.57,18.38-3.89,27.86-3.88,5,0,9.62-1.57,15.64-4.73-13.83-2.21-25.63,3.73-38.11.47,11.88-6.15,25.36.55,37.66-6.34-7-2.35-11.77-4.6-8.69-13.82,2.17-6.5-2.06-12-11.33-11.05-9.91,1-20,.22-31.12.22,3.06-3.41,5.81-1.64,8.12-2.19,3.64-.87,9.42,2.37,10.55-2.95,1.24-5.78,2.75-12.77-4-17.06-3.17-2-3.73-4.3-4.17-8.27-1.46-13-4.47-25.75-6.9-38.6-.29-1.52-1.07-3.06-.94-4.53,1.27-14.26-3.33-28.19-2.83-42.25.65-17.91-5.06-35-4.84-52.81.23-18.14-1.2-36.23-3.19-54.27a111,111,0,0,1-.17-14.13c.06-4-.54-7.57-4.85-9.23.65-2.4,1.3-4.79,1.93-7.2s2.24-3.47,4.83-3.43c3.21.05,2.66,2.42,3.51,4.37,2.59,6,.2,12.07,1.06,18,3.28,22.46,5.88,45.08,10.61,67.24,5,23.28,6.75,46.9,9.87,70.37,1.25,9.35,7.41,6.37,12.48,6.72,8.34.59,5.4-6.61,4.54-9.07-5.37-15.19-6.72-31.43-11.49-46.45-5.68-17.85-6.28-36.68-12.65-53.93-4.07-11-8.24-21.79-10.17-33.39-.3-1.76-1.88-3.73.69-4.69,2.32-.86,2.88,1.47,4.09,2.87,8.15,9.46,9.87,21.85,14.87,32.72,7.73,16.83,13,34.79,21.14,51.41,14.86,30.5,24.84,63,39,93.66,6.44,13.94,14.42,26.81,13.69,43.15-.33,7.43-2.87,10.07-9.75,10.39s-13.76,1.15-20.63,1.83c-5.59.55-10.24,3.71-10.74,8.92-.47,4.85-3.47,11.7,4.35,14.59,1.76.65,4.12,1.74,2.1,3.88-6.55,6.94-.66,9.9,4,12.9,4.86,3.1,7.29,5.19-.1,8.34-7.9,3.38-8.39,7.61-1.28,12.57s7,8.05-.89,11.35c-6,2.52-4.06,6.42-.79,9.43,5.12,4.72,12.48,8.49-.61,12.7-4.24,1.37-2,6.51.2,8.84,4.89,5.17,2.26,8-2.07,11.28a29.49,29.49,0,0,1-15.69,5.69c-42.55,4-85,5.72-127.61-.43m2.52-24.49M786.4,382.61c-1.14.4-4.24.12-3.08,6.41,2.58,14,3.4,28.38,5.34,42.54.71,5.16,3.8,8.58,9.59,6.17,11.33-4.71,12.82-7.5,8.89-19.05-3.47-10.19-8.59-19.8-11-30.38C795.26,384.54,793.22,382.05,786.4,382.61Zm-30.59,200c9.59,4,19.2,3.34,28.79.27C775,583.82,765.46,581.23,755.81,582.62Z" transform="translate(-654.25 -214.66)"/>
    <path className="cls-2" d="M743.21,233.58c-.83,11.47-7.33,21.29-9.37,32.44-2.91,15.85-14,28.06-19.33,42.92-6.4,17.93-14.78,35-19.93,53.58-5.51,19.86-14.75,38.7-22.72,57.84-2.14,5.16-3.26,9.83-1.51,15.36,3.23,10.24-.88,21.31,3.16,31.54-3.58,1-6.76-.9-10.1-1.48-6.38-1.11-9.15-4.4-9.16-11.62,0-11.88,2-22.63,7.42-33.44,7.28-14.54,12.19-30.26,19.13-45,16.14-34.28,29.11-69.9,44.72-104.34C731.23,258.79,735.3,245.22,743.21,233.58Z" transform="translate(-654.25 -214.66)"/>
    <path className="cls-2" d="M683.8,468.39c5.85-1.91,11.78-.23,20-.73-5.62,3.41-7.16,5.74-4.26,11,4.74,8.54-2.13,21.93-11.7,25.59,6.47,6.35,7.54,13.33,1.87,20.63-1.26,1.62-2.64,1.91-.36,4,7.21,6.58,3.92,12.08-2.48,16.72-2.46,1.78-4.28,3.59-4,6.81-3.27-.34-6.78-1.5-7.37-4.68-.49-2.62,3.32-3.21,5.31-4.61,7-4.94,7.17-9.77-.45-14.24-5.57-3.27-5.24-5,0-7.79,7.7-4.14,7-9.9,1.72-15.23-2.82-2.83-2.76-4.23,0-6.63C696.12,486.93,696.35,482.38,683.8,468.39Z" transform="translate(-654.25 -214.66)"/>
    <path className="cls-2" d="M781.19,482.59c8.82-1.61,7.59,5.74,8.75,10.24.75,2.93-2.29,3.29-4.53,2.38a10.74,10.74,0,0,0-7.28-.76c-2.15.62-6,2.82-5.73-.74s-1.75-9.37,4.25-11.06C778.1,482.24,779.77,482.59,781.19,482.59Z" transform="translate(-654.25 -214.66)"/>
    <path className="cls-2" d="M754.09,470.8H720.74V470h33.08Z" transform="translate(-654.25 -214.66)"/>
    <path className="cls-1" d="M755.81,582.62c9.65-1.39,19.19,1.2,28.79.27C775,586,765.4,586.67,755.81,582.62Z" transform="translate(-654.25 -214.66)"/>
  </g>
</svg>
