<svg xmlns="http://www.w3.org/2000/svg" viewBox="0 0 1600 944">
  <defs>
    <style>
      .cls-1 {
        fill: #fff;
      }

      .cls-2 {
        fill: #19355a;
      }

      .cls-3 {
        fill: none;
        stroke: #bb4b3d;
        stroke-linecap: round;
        stroke-miterlimit: 10;
        stroke-width: 40px;
      }

      .cls-4 {
        fill: #cb4b3d;
      }
    </style>
  </defs>
  <g id="Layer_2" data-name="Layer 2">
    <g>
      <rect className="cls-1" x="0.5" y="22.5" width="1599" height="899"/>
      <path d="M1599,1V899H1V1H1599m1-1H0V900H1600V0Z" transform="translate(0 22)"/>
    </g>
  </g>
  <g id="Layer_1" data-name="Layer 1">
    <rect className="cls-2" width="1600" height="944"/>
    <g>
      <line className="cls-3" x1="799" y1="145" x2="800" y2="798"/>
      <line className="cls-4" x1="799" y1="145" x2="800" y2="798"/>
    </g>
    <g>
      <path className="cls-1" d="M304.69,177.33h10.22l7.57,27.51c.79,2.88,1.65,6.48,1.72,6.84.08-.36.8-3.82,1.59-6.84l7-27.51h10.44l6.92,27.51c.72,2.95,1.44,6.48,1.51,6.84.14-.36.93-3.89,1.8-6.84l7.77-27.51h10l-13.89,46.73H346.67l-7.13-26.49c-.86-3.24-1.44-7.64-1.58-8.14-.15.5-.72,4.9-1.59,8.14l-7.13,26.49H318.52Z" transform="translate(0 22)"/>
      <path className="cls-1" d="M371.58,206a18.48,18.48,0,0,1,18.65-18.72c9.79,0,17.5,8.35,17.5,18.58a31.37,31.37,0,0,1-.22,3.45H381.37c1.15,5,5.26,7.35,10,7.35a17.85,17.85,0,0,0,9.72-2.81l3.6,6.91a24.19,24.19,0,0,1-13.39,4C380.79,224.71,371.58,217.87,371.58,206Zm27.07-3.1a8.7,8.7,0,0,0-8.71-7.56,9,9,0,0,0-8.71,7.56Z" transform="translate(0 22)"/>
      <path className="cls-1" d="M413,206c0-10.37,6.48-18.72,16.42-18.72A14.15,14.15,0,0,1,440.27,192V176.61h9.65V224h-9.15v-4.32c-2.59,3.46-7.2,5-11.52,5C419.31,224.71,413,216.36,413,206Zm27.29,0c0-5.62-3.6-9.79-8.57-9.79-5.19,0-8.93,4.17-8.93,9.79s3.74,9.79,8.93,9.79C436.67,215.78,440.27,211.75,440.27,206Z" transform="translate(0 22)"/>
      <path className="cls-1" d="M455.39,219.82l3.45-7.42a17.44,17.44,0,0,0,11.23,3.81c2.24,0,5.91-.86,5.91-3s-3.1-2.66-6.19-3.53c-7.13-1.87-13-4.25-13-11.16,0-7.34,7.2-11.23,14-11.23a24.59,24.59,0,0,1,13.4,3.6l-3.24,7.2a22.57,22.57,0,0,0-10-2.52c-2.23,0-4.32,1-4.32,2.52,0,2,3,2.66,6.33,3.38,6.13,1.44,12.82,4.11,12.82,11.45,0,8.86-9,11.81-15.7,11.81C462.37,224.71,457.4,221.69,455.39,219.82Z" transform="translate(0 22)"/>
      <path className="cls-1" d="M494,212.4V195.76h-5.26V188H494v-6.91l9.65-2.16V188h9.93v7.77h-9.93v16.49c0,3.1,1.51,4.11,3.24,4.11a8.91,8.91,0,0,0,4.61-1.51l2.73,7.13a16.59,16.59,0,0,1-9.14,2.73C497.87,224.71,494,220.54,494,212.4Z" transform="translate(0 22)"/>
      <path className="cls-1" d="M519,188h9.51v6.91c1-3,4.68-7.63,12.6-7.63v10.51c-8.36,0-12.46,3.82-12.46,12.39V224H519Z" transform="translate(0 22)"/>
      <path className="cls-1" d="M545.38,177.91a5.73,5.73,0,1,1,5.69,5.69A5.77,5.77,0,0,1,545.38,177.91Zm.94,10.08H556v36h-9.65Z" transform="translate(0 22)"/>
      <path className="cls-1" d="M557.33,230.26c4.25-2.31,6-6.7,6-11.81V188H573v29c0,10.51-4.39,16.41-12.24,20.09Zm5-52.35a5.72,5.72,0,1,1,5.68,5.69A5.76,5.76,0,0,1,562.38,177.91Z" transform="translate(0 22)"/>
      <path className="cls-1" d="M579.22,206c0-10.37,6.48-18.72,16.42-18.72A14.14,14.14,0,0,1,606.51,192V176.61h9.65V224H607v-4.32c-2.6,3.46-7.2,5-11.52,5C585.56,224.71,579.22,216.36,579.22,206Zm27.29,0c0-5.62-3.6-9.79-8.57-9.79-5.18,0-8.92,4.17-8.92,9.79s3.74,9.79,8.92,9.79C602.91,215.78,606.51,211.75,606.51,206Z" transform="translate(0 22)"/>
      <path className="cls-1" d="M623.5,176.61h9.65V224H623.5Z" transform="translate(0 22)"/>
      <path className="cls-1" d="M639.56,177.91a5.73,5.73,0,1,1,5.69,5.69A5.76,5.76,0,0,1,639.56,177.91Zm.93,10.08h9.65v36h-9.65Z" transform="translate(0 22)"/>
      <path className="cls-1" d="M656.41,206c0-10.37,6.48-18.72,16.41-18.72A14.18,14.18,0,0,1,683.7,192V176.61h9.64V224H684.2v-4.32c-2.59,3.46-7.2,5-11.52,5C662.74,224.71,656.41,216.36,656.41,206Zm27.29,0c0-5.62-3.6-9.79-8.57-9.79-5.19,0-8.93,4.17-8.93,9.79s3.74,9.79,8.93,9.79C680.1,215.78,683.7,211.75,683.7,206Z" transform="translate(0 22)"/>
      <path className="cls-1" d="M707.72,180.08l-5.88,3.82-2.52-4,9-7.14h5V200h-5.62Z" transform="translate(0 22)"/>
      <path className="cls-1" d="M316.45,350.13h20c13.75,0,20.95,8.07,20.95,18.08A16.69,16.69,0,0,1,348.57,383l9.72,13.75h-11.6l-7.2-10.94a25.24,25.24,0,0,1-4,.36h-9v10.58H316.45Zm20.31,27.44c5.9,0,10-4.25,10-9.36,0-5.33-4.11-9.51-9.94-9.51h-10.3v18.87Z" transform="translate(0 22)"/>
      <path className="cls-1" d="M361.52,378.79a18.49,18.49,0,0,1,18.65-18.72c9.8,0,17.5,8.35,17.5,18.58a31.37,31.37,0,0,1-.22,3.45H371.32c1.15,5,5.25,7.35,10,7.35a17.91,17.91,0,0,0,9.73-2.81l3.6,6.91a24.33,24.33,0,0,1-13.4,4C370.74,397.51,361.52,390.67,361.52,378.79Zm27.08-3.1a8.7,8.7,0,0,0-8.72-7.56,9,9,0,0,0-8.71,7.56Z" transform="translate(0 22)"/>
      <path className="cls-1" d="M402.92,378.79c0-10.44,8.5-18.72,19.23-18.72A19.83,19.83,0,0,1,435,364.68l-5.83,6.77a9.88,9.88,0,0,0-6.85-2.45,9.37,9.37,0,0,0-9.64,9.79c0,5.62,3.81,9.79,9.93,9.79a11.58,11.58,0,0,0,7.85-2.95l5.11,7.2a20.78,20.78,0,0,1-13.46,4.68C411.42,397.51,402.92,389.23,402.92,378.79Z" transform="translate(0 22)"/>
      <path className="cls-1" d="M440.58,360.79h9.5v6.91c1-2.95,4.68-7.63,12.6-7.63v10.51c-8.35,0-12.45,3.82-12.45,12.39v13.82h-9.65Z" transform="translate(0 22)"/>
      <path className="cls-1" d="M466.57,378.79a18.48,18.48,0,0,1,18.65-18.72c9.79,0,17.5,8.35,17.5,18.58a31.37,31.37,0,0,1-.22,3.45H476.36c1.15,5,5.26,7.35,10,7.35a17.85,17.85,0,0,0,9.72-2.81l3.6,6.91a24.27,24.27,0,0,1-13.39,4C475.79,397.51,466.57,390.67,466.57,378.79Zm27.07-3.1a8.7,8.7,0,0,0-8.71-7.56,9,9,0,0,0-8.71,7.56Z" transform="translate(0 22)"/>
      <path className="cls-1" d="M508,378.79c0-10.37,6.34-18.72,16.27-18.72,4.18,0,8.64,1.65,11.24,5.11v-4.39h9.43v36h-9.43v-4.32c-2.52,3.46-7.06,5-11.24,5C514.31,397.51,508,389.16,508,378.79Zm27.29,0c0-5.62-3.6-9.79-8.57-9.79-5.18,0-8.93,4.17-8.93,9.79s3.75,9.79,8.93,9.79C531.66,388.58,535.26,384.55,535.26,378.79Z" transform="translate(0 22)"/>
      <path className="cls-1" d="M552.25,360.79h9.43v4.82a13.44,13.44,0,0,1,11.38-5.54c9.5,0,12.82,6.12,12.82,16v20.74h-9.65V377.28c0-5.26-1.37-8.07-6.27-8.07s-8.06,3.89-8.06,9.36v18.22h-9.65Z" transform="translate(0 22)"/>
      <path className="cls-1" d="M595.16,385.2V368.56H589.9v-7.77h5.26v-6.91l9.65-2.16v9.07h9.94v7.77h-9.94v16.49c0,3.1,1.51,4.11,3.24,4.11a8.91,8.91,0,0,0,4.61-1.51l2.74,7.13a16.71,16.71,0,0,1-9.15,2.73C599.05,397.51,595.16,393.33,595.16,385.2Z" transform="translate(0 22)"/>
      <path className="cls-1" d="M620.14,349.41h9.65v47.38h-9.65Z" transform="translate(0 22)"/>
      <path className="cls-1" d="M636.2,350.71a5.73,5.73,0,1,1,5.69,5.69A5.76,5.76,0,0,1,636.2,350.71Zm.94,10.08h9.65v36h-9.65Z" transform="translate(0 22)"/>
      <path className="cls-1" d="M653.05,378.79c0-10.37,6.48-18.72,16.41-18.72a14.16,14.16,0,0,1,10.88,4.75V349.41H690v47.38h-9.15v-4.32c-2.59,3.46-7.2,5-11.52,5C659.38,397.51,653.05,389.16,653.05,378.79Zm27.29,0c0-5.62-3.6-9.79-8.57-9.79-5.19,0-8.93,4.17-8.93,9.79s3.74,9.79,8.93,9.79C676.74,388.58,680.34,384.55,680.34,378.79Z" transform="translate(0 22)"/>
      <path className="cls-1" d="M695.5,369.21c9.19-7.43,13.39-11.76,13.39-15.28,0-2-1.3-3.66-4-3.66a9.52,9.52,0,0,0-6.12,2.86l-2.86-3.7a13,13,0,0,1,9.45-4.24c5.16,0,9.44,2.86,9.44,8.23,0,5.16-5.2,10.62-10.24,14.4h11.08v5H695.5Z" transform="translate(0 22)"/>
      <path className="cls-1" d="M462.39,546.26c0-13.32,10.23-24,24.63-24a25.12,25.12,0,0,1,16.56,6L497.32,535a14.18,14.18,0,0,0-10.08-3.67c-8.14,0-14.33,6.62-14.33,14.9s6,15,14.33,15A14.77,14.77,0,0,0,498,556.56v-6.84H490v-7.35h17.14v18.15c-4.1,6.12-11.66,9.86-20.09,9.86C472.69,570.38,462.39,559.65,462.39,546.26Z" transform="translate(0 22)"/>
      <path className="cls-1" d="M514.16,551.59c0-10.37,6.34-18.72,16.28-18.72,4.17,0,8.64,1.65,11.23,5.11v-4.39h9.43v36h-9.43v-4.32c-2.52,3.46-7.06,5-11.23,5C520.5,570.31,514.16,562,514.16,551.59Zm27.29,0c0-5.62-3.6-9.79-8.57-9.79-5.18,0-8.93,4.17-8.93,9.79s3.75,9.79,8.93,9.79C537.85,561.38,541.45,557.35,541.45,551.59Z" transform="translate(0 22)"/>
      <path className="cls-1" d="M556.57,565.41,560,558a17.47,17.47,0,0,0,11.24,3.81c2.23,0,5.9-.86,5.9-3s-3.09-2.66-6.19-3.53c-7.13-1.87-13-4.25-13-11.16,0-7.34,7.2-11.23,14-11.23a24.55,24.55,0,0,1,13.39,3.6l-3.24,7.2a22.57,22.57,0,0,0-10-2.52c-2.23,0-4.32,1-4.32,2.52,0,2,3,2.66,6.34,3.38,6.12,1.44,12.82,4.11,12.82,11.45,0,8.86-9,11.81-15.7,11.81C563.55,570.31,558.58,567.29,556.57,565.41Z" transform="translate(0 22)"/>
      <path className="cls-1" d="M595.16,558V541.36H589.9v-7.77h5.26v-6.92l9.65-2.16v9.08h9.94v7.77h-9.94v16.49c0,3.1,1.51,4.11,3.24,4.11a8.91,8.91,0,0,0,4.61-1.51l2.74,7.12a16.63,16.63,0,0,1-9.15,2.74C599.05,570.31,595.16,566.13,595.16,558Z" transform="translate(0 22)"/>
      <path className="cls-1" d="M620.14,522.21h9.65v47.38h-9.65Z" transform="translate(0 22)"/>
      <path className="cls-1" d="M636.2,523.51a5.73,5.73,0,1,1,5.69,5.69A5.76,5.76,0,0,1,636.2,523.51Zm.94,10.08h9.65v36h-9.65Z" transform="translate(0 22)"/>
      <path className="cls-1" d="M653.05,551.59c0-10.37,6.48-18.72,16.41-18.72a14.16,14.16,0,0,1,10.88,4.75V522.21H690v47.38h-9.15v-4.32c-2.59,3.46-7.2,5-11.52,5C659.38,570.31,653.05,562,653.05,551.59Zm27.29,0c0-5.62-3.6-9.79-8.57-9.79-5.19,0-8.93,4.17-8.93,9.79s3.74,9.79,8.93,9.79C676.74,561.38,680.34,557.35,680.34,551.59Z" transform="translate(0 22)"/>
      <path className="cls-1" d="M695.5,542c9.19-7.42,13.39-11.75,13.39-15.27,0-2-1.3-3.66-4-3.66a9.52,9.52,0,0,0-6.12,2.86l-2.86-3.7a13,13,0,0,1,9.45-4.24c5.16,0,9.44,2.86,9.44,8.23,0,5.16-5.2,10.62-10.24,14.4h11.08v5H695.5Z" transform="translate(0 22)"/>
      <path className="cls-1" d="M322.08,695.73h10.08v46.66H322.08Z" transform="translate(0 22)"/>
      <path className="cls-1" d="M340.51,706.39h9.43v4.82a13.44,13.44,0,0,1,11.38-5.54c9.5,0,12.82,6.12,12.82,16v20.74h-9.65V722.88c0-5.26-1.37-8.07-6.27-8.07s-8.06,3.89-8.06,9.36v18.22h-9.65Z" transform="translate(0 22)"/>
      <path className="cls-1" d="M379.1,738.21l3.46-7.41a17.42,17.42,0,0,0,11.23,3.82c2.23,0,5.9-.87,5.9-3s-3.09-2.66-6.19-3.53c-7.13-1.87-13-4.25-13-11.16,0-7.34,7.2-11.23,14-11.23a24.55,24.55,0,0,1,13.39,3.6l-3.24,7.2a22.57,22.57,0,0,0-10-2.52c-2.23,0-4.32,1-4.32,2.52,0,2,3,2.66,6.34,3.38,6.12,1.44,12.82,4.11,12.82,11.45,0,8.86-9,11.81-15.7,11.81C386.08,743.11,381.12,740.09,379.1,738.21Z" transform="translate(0 22)"/>
      <path className="cls-1" d="M414.16,724.39c0-10.44,8.5-18.72,19.23-18.72a19.83,19.83,0,0,1,12.89,4.61L440.45,717a9.9,9.9,0,0,0-6.84-2.44,9.38,9.38,0,0,0-9.65,9.79c0,5.62,3.81,9.79,9.93,9.79a11.58,11.58,0,0,0,7.85-2.95l5.11,7.2a20.78,20.78,0,0,1-13.46,4.68C422.66,743.11,414.16,734.83,414.16,724.39Z" transform="translate(0 22)"/>
      <path className="cls-1" d="M451.82,695h9.65v15.91a13.22,13.22,0,0,1,11.09-5.25c9.36,0,12.81,5.9,12.81,16v20.74h-9.64V722.88c0-5.26-1.59-8.07-6.34-8.07-5.11,0-7.92,4.11-7.92,9.29v18.29h-9.65Z" transform="translate(0 22)"/>
      <path className="cls-1" d="M492.28,706.39h9.51v6.91c1-2.95,4.68-7.63,12.6-7.63v10.51c-8.35,0-12.46,3.82-12.46,12.39v13.82h-9.65Z" transform="translate(0 22)"/>
      <path className="cls-1" d="M518.71,696.31A5.73,5.73,0,1,1,524.4,702,5.76,5.76,0,0,1,518.71,696.31Zm.93,10.08h9.65v36h-9.65Z" transform="translate(0 22)"/>
      <path className="cls-1" d="M530.66,748.66c4.25-2.31,6-6.7,6-11.81V706.39h9.65v29c0,10.51-4.39,16.41-12.24,20.09Zm5-52.35a5.73,5.73,0,1,1,5.69,5.69A5.76,5.76,0,0,1,535.7,696.31Z" transform="translate(0 22)"/>
      <path className="cls-1" d="M555.14,714.24h-5.62v-7.78h5.62v-2.38c0-8.35,4.61-12,10.73-12a22,22,0,0,1,9.36,2.23l-2.74,7.13a10.11,10.11,0,0,0-4-1.08c-2,0-3.67,1-3.67,4.75v1.3h9v7.78h-9v28.15h-9.65Z" transform="translate(0 22)"/>
      <path className="cls-1" d="M578.68,748.51l3.6-6a17.84,17.84,0,0,0,10.44,3.24c6.7,0,10.08-4,10.37-9.79a2.73,2.73,0,0,0,.07-.79c-1.58,2.81-5.47,5.33-10.8,5.33-10,0-16.27-7.78-16.27-17.36s6.26-17.42,16.27-17.42c4.61,0,9.36,2,11.31,5.62v-4.9h9.14v27.29c0,11.81-7.12,19.3-19.08,19.3C587.25,753,582,751.25,578.68,748.51Zm24.56-25.63a8.61,8.61,0,0,0-8.72-8.86c-4.89,0-8.64,3.82-8.64,9.07a8.56,8.56,0,0,0,8.64,8.93C599.56,732,603.24,728.28,603.24,722.88Z" transform="translate(0 22)"/>
      <path className="cls-1" d="M619,724.39a18.49,18.49,0,0,1,18.65-18.72c9.79,0,17.5,8.35,17.5,18.58a31.37,31.37,0,0,1-.22,3.45H628.79c1.16,5,5.26,7.35,10,7.35a17.85,17.85,0,0,0,9.72-2.81l3.6,6.91a24.19,24.19,0,0,1-13.39,4C628.22,743.11,619,736.27,619,724.39Zm27.08-3.1a8.7,8.7,0,0,0-8.72-7.56,9,9,0,0,0-8.71,7.56Z" transform="translate(0 22)"/>
      <path className="cls-1" d="M661.48,695h9.65v47.38h-9.65Z" transform="translate(0 22)"/>
      <path className="cls-1" d="M677.39,724.39c0-10.37,6.48-18.72,16.42-18.72a14.14,14.14,0,0,1,10.87,4.75V695h9.65v47.38h-9.14v-4.32c-2.59,3.46-7.2,5-11.52,5C683.73,743.11,677.39,734.76,677.39,724.39Zm27.29,0c0-5.62-3.6-9.79-8.57-9.79-5.18,0-8.92,4.17-8.92,9.79s3.74,9.79,8.92,9.79C701.08,734.18,704.68,730.15,704.68,724.39Z" transform="translate(0 22)"/>
    </g>
    <g>
      <path className="cls-1" d="M1141.93,823.2l-2.86,1.85-1.22-1.92,4.36-3.46h2.45v13.22h-2.73Z" transform="translate(0 22)"/>
      <path className="cls-1" d="M1149.06,830.33a2.72,2.72,0,0,1,2.73-2.77,2.75,2.75,0,1,1,0,5.5A2.7,2.7,0,0,1,1149.06,830.33Zm0,11.83a2.7,2.7,0,0,1,2.73-2.76,2.75,2.75,0,1,1,0,5.49A2.69,2.69,0,0,1,1149.06,842.16Z" transform="translate(0 22)"/>
      <path className="cls-1" d="M1166.74,821.86h4.9v22.68h-4.9Z" transform="translate(0 22)"/>
      <path className="cls-1" d="M1175.7,827h4.58v2.34a6.54,6.54,0,0,1,5.53-2.69c4.62,0,6.23,3,6.23,7.77v10.08h-4.69v-9.49c0-2.55-.66-3.92-3-3.92s-3.92,1.89-3.92,4.56v8.85h-4.69Z" transform="translate(0 22)"/>
      <path className="cls-1" d="M1194.84,835.79a9.16,9.16,0,0,1,9.35-9.1,9.66,9.66,0,0,1,6.27,2.24l-2.84,3.29a4.8,4.8,0,0,0-3.33-1.19,4.76,4.76,0,0,0,.14,9.52,5.67,5.67,0,0,0,3.82-1.43l2.48,3.5a10.12,10.12,0,0,1-6.54,2.27A9.16,9.16,0,0,1,1194.84,835.79Z" transform="translate(0 22)"/>
      <path className="cls-1" d="M1213.15,821.51h4.69v23h-4.69Z" transform="translate(0 22)"/>
      <path className="cls-1" d="M1221.16,837.5V827h4.69v9.84c0,2.45,1.05,3.57,3.22,3.57,2.45,0,3.64-2.07,3.64-4.45v-9h4.69v17.5H1233v-2.45a6.72,6.72,0,0,1-5.46,2.8C1222.7,844.89,1221.16,842.06,1221.16,837.5Z" transform="translate(0 22)"/>
      <path className="cls-1" d="M1240.06,842.51l1.68-3.6a8.48,8.48,0,0,0,5.46,1.85c1.09,0,2.87-.42,2.87-1.47s-1.5-1.29-3-1.71c-3.46-.91-6.3-2.07-6.3-5.43,0-3.57,3.5-5.46,6.79-5.46a11.94,11.94,0,0,1,6.51,1.75l-1.57,3.5a11,11,0,0,0-4.87-1.23c-1.08,0-2.1.5-2.1,1.23,0,1,1.47,1.29,3.08,1.64,3,.71,6.23,2,6.23,5.57,0,4.31-4.37,5.74-7.63,5.74A10.65,10.65,0,0,1,1240.06,842.51Z" transform="translate(0 22)"/>
      <path className="cls-1" d="M1257.18,822.14a2.78,2.78,0,1,1,2.76,2.76A2.8,2.8,0,0,1,1257.18,822.14Zm.45,4.9h4.69v17.5h-4.69Z" transform="translate(0 22)"/>
      <path className="cls-1" d="M1265.37,835.79a9,9,0,0,1,9.06-9.1,8.75,8.75,0,0,1,8.51,9,14.83,14.83,0,0,1-.11,1.68h-12.7A4.62,4.62,0,0,0,1275,841a8.75,8.75,0,0,0,4.73-1.36l1.75,3.36a11.84,11.84,0,0,1-6.51,1.92C1269.85,844.89,1265.37,841.57,1265.37,835.79Zm13.16-1.5a4.23,4.23,0,0,0-4.24-3.68,4.38,4.38,0,0,0-4.23,3.68Z" transform="translate(0 22)"/>
      <path className="cls-1" d="M1286.75,830.85H1284v-3.78h2.73v-1.15c0-4.06,2.24-5.81,5.22-5.81a10.66,10.66,0,0,1,4.55,1.08l-1.33,3.47a4.87,4.87,0,0,0-2-.53c-1,0-1.79.49-1.79,2.31v.63h4.38v3.78h-4.38v13.69h-4.69Z" transform="translate(0 22)"/>
      <path className="cls-1" d="M1303.94,827h4.58l2.66,9.34a23.76,23.76,0,0,1,.56,2.77,23.66,23.66,0,0,1,.42-2.73l2.14-9.38h4.62l2.13,9.38c.28,1.19.46,2.73.46,2.73a20.05,20.05,0,0,1,.52-2.77l2.7-9.34h4.55l-5.6,17.54h-4.24l-2.34-9.46c-.28-1.19-.46-2.66-.46-2.66s-.21,1.47-.49,2.66l-2.34,9.46h-4.27Z" transform="translate(0 22)"/>
      <path className="cls-1" d="M1330.26,835.79a9,9,0,0,1,9.06-9.1,8.75,8.75,0,0,1,8.51,9,14.83,14.83,0,0,1-.11,1.68H1335a4.62,4.62,0,0,0,4.86,3.57,8.75,8.75,0,0,0,4.73-1.36l1.75,3.36a11.84,11.84,0,0,1-6.51,1.92C1334.74,844.89,1330.26,841.57,1330.26,835.79Zm13.16-1.5a4.23,4.23,0,0,0-4.24-3.68,4.38,4.38,0,0,0-4.23,3.68Z" transform="translate(0 22)"/>
      <path className="cls-1" d="M1350.38,835.79c0-5,3.15-9.1,8-9.1a6.88,6.88,0,0,1,5.29,2.31v-7.49h4.69v23h-4.45v-2.1a7,7,0,0,1-5.6,2.45C1353.46,844.89,1350.38,840.83,1350.38,835.79Zm13.27,0c0-2.73-1.75-4.76-4.17-4.76s-4.34,2-4.34,4.76,1.82,4.76,4.34,4.76S1363.65,838.59,1363.65,835.79Z" transform="translate(0 22)"/>
      <path className="cls-1" d="M1371,842.51l1.68-3.6a8.46,8.46,0,0,0,5.46,1.85c1.08,0,2.87-.42,2.87-1.47s-1.51-1.29-3-1.71c-3.47-.91-6.3-2.07-6.3-5.43,0-3.57,3.5-5.46,6.79-5.46a11.94,11.94,0,0,1,6.51,1.75l-1.58,3.5a11,11,0,0,0-4.86-1.23c-1.09,0-2.1.5-2.1,1.23,0,1,1.47,1.29,3.08,1.64,3,.71,6.23,2,6.23,5.57,0,4.31-4.38,5.74-7.63,5.74A10.61,10.61,0,0,1,1371,842.51Z" transform="translate(0 22)"/>
      <path className="cls-1" d="M1389.76,838.91v-8.09h-2.56V827h2.56v-3.36l4.69-1V827h4.83v3.78h-4.83v8c0,1.51.73,2,1.57,2a4.35,4.35,0,0,0,2.24-.73l1.33,3.46a8.06,8.06,0,0,1-4.44,1.33C1391.65,844.89,1389.76,842.86,1389.76,838.91Z" transform="translate(0 22)"/>
      <path className="cls-1" d="M1401.9,827h4.62v3.36c.49-1.44,2.28-3.71,6.13-3.71v5.11c-4.06,0-6.06,1.86-6.06,6v6.72h-4.69Z" transform="translate(0 22)"/>
      <path className="cls-1" d="M1414.75,822.14a2.78,2.78,0,1,1,2.76,2.76A2.8,2.8,0,0,1,1414.75,822.14Zm.45,4.9h4.69v17.5h-4.69Z" transform="translate(0 22)"/>
      <path className="cls-1" d="M1420.55,847.59c2.07-1.12,2.91-3.26,2.91-5.74V827h4.69v14.11c0,5.11-2.14,8-6,9.76Zm2.45-25.45a2.79,2.79,0,1,1,2.77,2.76A2.8,2.8,0,0,1,1423,822.14Z" transform="translate(0 22)"/>
      <path className="cls-1" d="M1431.19,835.79c0-5,3.15-9.1,8-9.1a6.87,6.87,0,0,1,5.29,2.31v-7.49h4.69v23h-4.44v-2.1a7,7,0,0,1-5.6,2.45C1434.27,844.89,1431.19,840.83,1431.19,835.79Zm13.27,0c0-2.73-1.75-4.76-4.17-4.76s-4.33,2-4.33,4.76,1.82,4.76,4.33,4.76S1444.46,838.59,1444.46,835.79Z" transform="translate(0 22)"/>
      <path className="cls-1" d="M1452.72,821.51h4.69v23h-4.69Z" transform="translate(0 22)"/>
      <path className="cls-1" d="M1460.52,822.14a2.79,2.79,0,1,1,2.77,2.76A2.8,2.8,0,0,1,1460.52,822.14Zm.46,4.9h4.69v17.5H1461Z" transform="translate(0 22)"/>
      <path className="cls-1" d="M1468.71,835.79a9.16,9.16,0,0,1,9.35-9.1,9.66,9.66,0,0,1,6.27,2.24l-2.84,3.29a4.79,4.79,0,0,0-3.33-1.19,4.76,4.76,0,0,0,.14,9.52,5.65,5.65,0,0,0,3.82-1.43l2.49,3.5a10.14,10.14,0,0,1-6.55,2.27A9.16,9.16,0,0,1,1468.71,835.79Z" transform="translate(0 22)"/>
      <path className="cls-1" d="M1485.93,835.79a9,9,0,0,1,9.07-9.1,8.75,8.75,0,0,1,8.51,9,14.83,14.83,0,0,1-.11,1.68h-12.71a4.63,4.63,0,0,0,4.87,3.57,8.75,8.75,0,0,0,4.73-1.36L1502,843a11.84,11.84,0,0,1-6.51,1.92C1490.41,844.89,1485.93,841.57,1485.93,835.79Zm13.17-1.5a4.23,4.23,0,0,0-4.24-3.68,4.4,4.4,0,0,0-4.24,3.68Z" transform="translate(0 22)"/>
      <path className="cls-1" d="M1506.58,827h4.59v2.34a6.53,6.53,0,0,1,5.53-2.69c4.62,0,6.23,3,6.23,7.77v10.08h-4.69v-9.49c0-2.55-.67-3.92-3-3.92s-3.92,1.89-3.92,4.56v8.85h-4.69Z" transform="translate(0 22)"/>
      <path className="cls-1" d="M1527.44,838.91v-8.09h-2.55V827h2.55v-3.36l4.69-1V827H1537v3.78h-4.83v8c0,1.51.74,2,1.58,2a4.35,4.35,0,0,0,2.24-.73l1.33,3.46a8.07,8.07,0,0,1-4.45,1.33C1529.33,844.89,1527.44,842.86,1527.44,838.91Z" transform="translate(0 22)"/>
      <path className="cls-1" d="M1539.13,822.14a2.79,2.79,0,1,1,2.77,2.76A2.8,2.8,0,0,1,1539.13,822.14Zm.46,4.9h4.69v17.5h-4.69Z" transform="translate(0 22)"/>
      <path className="cls-1" d="M1547.32,835.79a9,9,0,0,1,9.07-9.1,8.75,8.75,0,0,1,8.5,9,16.29,16.29,0,0,1-.1,1.68h-12.71A4.63,4.63,0,0,0,1557,841a8.69,8.69,0,0,0,4.72-1.36l1.75,3.36a11.81,11.81,0,0,1-6.51,1.92C1551.8,844.89,1547.32,841.57,1547.32,835.79Zm13.16-1.5a4.23,4.23,0,0,0-4.23-3.68,4.4,4.4,0,0,0-4.24,3.68Z" transform="translate(0 22)"/>
      <path className="cls-1" d="M1137.62,873.13c4.47-3.61,6.51-5.71,6.51-7.42a1.74,1.74,0,0,0-1.94-1.78,4.68,4.68,0,0,0-3,1.39l-1.38-1.8a6.31,6.31,0,0,1,4.59-2.06c2.51,0,4.59,1.39,4.59,4s-2.53,5.16-5,7h5.39v2.43h-9.8Z" transform="translate(0 22)"/>
      <path className="cls-1" d="M1150.7,872.33a2.72,2.72,0,0,1,2.73-2.77,2.75,2.75,0,1,1,0,5.5A2.69,2.69,0,0,1,1150.7,872.33Zm0,11.83a2.7,2.7,0,0,1,2.73-2.76,2.75,2.75,0,1,1,0,5.49A2.68,2.68,0,0,1,1150.7,884.16Z" transform="translate(0 22)"/>
      <path className="cls-1" d="M1168.37,863.86h17.75v4.2h-12.85v4.62h12.18v4.16h-12.18v5.5h13.34v4.2h-18.24Z" transform="translate(0 22)"/>
      <path className="cls-1" d="M1193.61,877.62l-5.78-8.58H1193l2.07,3.15c.63,1,1.5,2.73,1.5,2.73s.88-1.68,1.48-2.73l2.1-3.15h5.14l-5.81,8.58,5.81,8.92h-5.18l-2-3.18c-.66-1.09-1.58-2.91-1.58-2.91s-.83,1.75-1.5,2.91l-2.07,3.18h-5.14Z" transform="translate(0 22)"/>
      <path className="cls-1" d="M1206.31,877.79a9.16,9.16,0,0,1,9.35-9.1,9.63,9.63,0,0,1,6.26,2.24l-2.83,3.29a4.8,4.8,0,0,0-3.33-1.19,4.76,4.76,0,0,0,.14,9.52,5.67,5.67,0,0,0,3.82-1.43l2.48,3.5a10.12,10.12,0,0,1-6.54,2.27A9.16,9.16,0,0,1,1206.31,877.79Z" transform="translate(0 22)"/>
      <path className="cls-1" d="M1224.62,863.51h4.68v23h-4.68Z" transform="translate(0 22)"/>
      <path className="cls-1" d="M1232.63,879.5V869h4.69v9.84c0,2.45,1,3.57,3.22,3.57,2.45,0,3.64-2.07,3.64-4.45v-9h4.69v17.5h-4.41v-2.45a6.72,6.72,0,0,1-5.46,2.8C1234.17,886.89,1232.63,884.06,1232.63,879.5Z" transform="translate(0 22)"/>
      <path className="cls-1" d="M1251.53,884.51l1.68-3.6a8.46,8.46,0,0,0,5.46,1.85c1.08,0,2.87-.42,2.87-1.47s-1.5-1.29-3-1.71c-3.47-.91-6.3-2.07-6.3-5.43,0-3.57,3.5-5.46,6.79-5.46a11.94,11.94,0,0,1,6.51,1.75l-1.57,3.5a11,11,0,0,0-4.87-1.23c-1.09,0-2.1.5-2.1,1.23,0,1,1.47,1.29,3.08,1.64,3,.71,6.23,2,6.23,5.57,0,4.31-4.38,5.74-7.63,5.74A10.63,10.63,0,0,1,1251.53,884.51Z" transform="translate(0 22)"/>
      <path className="cls-1" d="M1268.64,864.14a2.79,2.79,0,1,1,2.77,2.76A2.8,2.8,0,0,1,1268.64,864.14Zm.46,4.9h4.69v17.5h-4.69Z" transform="translate(0 22)"/>
      <path className="cls-1" d="M1276.83,877.79a9,9,0,0,1,9.07-9.1,8.75,8.75,0,0,1,8.51,9,14.83,14.83,0,0,1-.11,1.68h-12.71a4.63,4.63,0,0,0,4.87,3.57,8.75,8.75,0,0,0,4.73-1.36l1.75,3.36a11.87,11.87,0,0,1-6.52,1.92C1281.31,886.89,1276.83,883.57,1276.83,877.79Zm13.16-1.5a4.23,4.23,0,0,0-4.23-3.68,4.4,4.4,0,0,0-4.24,3.68Z" transform="translate(0 22)"/>
      <path className="cls-1" d="M1298.22,872.85h-2.73v-3.78h2.73v-1.15c0-4.06,2.24-5.81,5.21-5.81a10.59,10.59,0,0,1,4.55,1.08l-1.33,3.47a4.77,4.77,0,0,0-2-.53c-1,0-1.78.49-1.78,2.31v.63h4.38v3.78h-4.38v13.69h-4.69Z" transform="translate(0 22)"/>
      <path className="cls-1" d="M1315.4,869H1320l2.66,9.34a23.76,23.76,0,0,1,.56,2.77,23.66,23.66,0,0,1,.42-2.73l2.13-9.38h4.62l2.14,9.38a27.49,27.49,0,0,1,.45,2.73,20.87,20.87,0,0,1,.53-2.77l2.7-9.34h4.55l-5.61,17.54h-4.23l-2.35-9.46c-.28-1.19-.45-2.66-.45-2.66s-.21,1.47-.49,2.66l-2.35,9.46H1321Z" transform="translate(0 22)"/>
      <path className="cls-1" d="M1341.72,877.79a9,9,0,0,1,9.07-9.1,8.75,8.75,0,0,1,8.5,9,16.29,16.29,0,0,1-.1,1.68h-12.71a4.63,4.63,0,0,0,4.87,3.57,8.69,8.69,0,0,0,4.72-1.36l1.75,3.36a11.81,11.81,0,0,1-6.51,1.92C1346.2,886.89,1341.72,883.57,1341.72,877.79Zm13.16-1.5a4.23,4.23,0,0,0-4.23-3.68,4.4,4.4,0,0,0-4.24,3.68Z" transform="translate(0 22)"/>
      <path className="cls-1" d="M1361.85,877.79c0-5,3.15-9.1,8-9.1a6.86,6.86,0,0,1,5.28,2.31v-7.49h4.69v23h-4.44v-2.1a7,7,0,0,1-5.6,2.45C1364.93,886.89,1361.85,882.83,1361.85,877.79Zm13.26,0c0-2.73-1.75-4.76-4.16-4.76s-4.34,2-4.34,4.76,1.82,4.76,4.34,4.76S1375.11,880.59,1375.11,877.79Z" transform="translate(0 22)"/>
      <path className="cls-1" d="M1382.46,884.51l1.68-3.6a8.48,8.48,0,0,0,5.46,1.85c1.09,0,2.87-.42,2.87-1.47s-1.5-1.29-3-1.71c-3.46-.91-6.3-2.07-6.3-5.43,0-3.57,3.5-5.46,6.79-5.46a11.94,11.94,0,0,1,6.51,1.75l-1.57,3.5a11,11,0,0,0-4.87-1.23c-1.08,0-2.1.5-2.1,1.23,0,1,1.47,1.29,3.08,1.64,3,.71,6.23,2,6.23,5.57,0,4.31-4.37,5.74-7.63,5.74A10.65,10.65,0,0,1,1382.46,884.51Z" transform="translate(0 22)"/>
      <path className="cls-1" d="M1401.22,880.91v-8.09h-2.55V869h2.55v-3.36l4.69-1V869h4.83v3.78h-4.83v8c0,1.51.74,2,1.58,2a4.35,4.35,0,0,0,2.24-.73l1.33,3.46a8.07,8.07,0,0,1-4.45,1.33C1403.11,886.89,1401.22,884.86,1401.22,880.91Z" transform="translate(0 22)"/>
      <path className="cls-1" d="M1413.37,869H1418v3.36c.49-1.44,2.27-3.71,6.12-3.71v5.11c-4.06,0-6,1.86-6,6v6.72h-4.69Z" transform="translate(0 22)"/>
      <path className="cls-1" d="M1426.21,864.14a2.79,2.79,0,1,1,2.77,2.76A2.8,2.8,0,0,1,1426.21,864.14Zm.46,4.9h4.69v17.5h-4.69Z" transform="translate(0 22)"/>
      <path className="cls-1" d="M1432,889.59c2.07-1.12,2.91-3.26,2.91-5.74V869h4.69v14.11c0,5.11-2.14,8-5.95,9.76Zm2.45-25.45a2.79,2.79,0,1,1,2.77,2.76A2.8,2.8,0,0,1,1434.47,864.14Z" transform="translate(0 22)"/>
      <path className="cls-1" d="M1442.66,877.79c0-5,3.15-9.1,8-9.1a6.88,6.88,0,0,1,5.29,2.31v-7.49h4.69v23h-4.45v-2.1a7,7,0,0,1-5.6,2.45C1445.74,886.89,1442.66,882.83,1442.66,877.79Zm13.27,0c0-2.73-1.75-4.76-4.17-4.76s-4.34,2-4.34,4.76,1.82,4.76,4.34,4.76S1455.93,880.59,1455.93,877.79Z" transform="translate(0 22)"/>
      <path className="cls-1" d="M1464.19,863.51h4.69v23h-4.69Z" transform="translate(0 22)"/>
      <path className="cls-1" d="M1472,864.14a2.79,2.79,0,1,1,2.77,2.76A2.8,2.8,0,0,1,1472,864.14Zm.46,4.9h4.69v17.5h-4.69Z" transform="translate(0 22)"/>
      <path className="cls-1" d="M1480.18,877.79a9.16,9.16,0,0,1,9.35-9.1,9.63,9.63,0,0,1,6.26,2.24l-2.83,3.29a4.8,4.8,0,0,0-3.33-1.19,4.76,4.76,0,0,0,.14,9.52,5.67,5.67,0,0,0,3.82-1.43l2.48,3.5a10.12,10.12,0,0,1-6.54,2.27A9.16,9.16,0,0,1,1480.18,877.79Z" transform="translate(0 22)"/>
      <path className="cls-1" d="M1497.4,877.79a9,9,0,0,1,9.07-9.1,8.75,8.75,0,0,1,8.5,9,16.29,16.29,0,0,1-.1,1.68h-12.71A4.63,4.63,0,0,0,1507,883a8.69,8.69,0,0,0,4.72-1.36l1.75,3.36a11.81,11.81,0,0,1-6.51,1.92C1501.88,886.89,1497.4,883.57,1497.4,877.79Zm13.16-1.5a4.23,4.23,0,0,0-4.23-3.68,4.4,4.4,0,0,0-4.24,3.68Z" transform="translate(0 22)"/>
      <path className="cls-1" d="M1518.05,869h4.59v2.34a6.53,6.53,0,0,1,5.53-2.69c4.62,0,6.23,3,6.23,7.77v10.08h-4.69v-9.49c0-2.55-.67-3.92-3-3.92s-3.92,1.89-3.92,4.56v8.85h-4.69Z" transform="translate(0 22)"/>
      <path className="cls-1" d="M1538.91,880.91v-8.09h-2.55V869h2.55v-3.36l4.69-1V869h4.83v3.78h-4.83v8c0,1.51.74,2,1.58,2a4.35,4.35,0,0,0,2.24-.73l1.33,3.46a8.07,8.07,0,0,1-4.45,1.33C1540.8,886.89,1538.91,884.86,1538.91,880.91Z" transform="translate(0 22)"/>
      <path className="cls-1" d="M1550.6,864.14a2.79,2.79,0,1,1,2.77,2.76A2.8,2.8,0,0,1,1550.6,864.14Zm.45,4.9h4.7v17.5h-4.7Z" transform="translate(0 22)"/>
      <path className="cls-1" d="M1558.79,877.79a9,9,0,0,1,9.07-9.1,8.75,8.75,0,0,1,8.5,9,16.29,16.29,0,0,1-.1,1.68h-12.71a4.63,4.63,0,0,0,4.87,3.57,8.69,8.69,0,0,0,4.72-1.36l1.75,3.36a11.81,11.81,0,0,1-6.51,1.92C1563.27,886.89,1558.79,883.57,1558.79,877.79Zm13.16-1.5a4.23,4.23,0,0,0-4.23-3.68,4.4,4.4,0,0,0-4.24,3.68Z" transform="translate(0 22)"/>
    </g>
    <g>
      <path className="cls-1" d="M883.21,207.07H877l1.15-4.39h4.54a15.9,15.9,0,0,1-.08-2,14.16,14.16,0,0,1,.08-1.87h-4.54l1.3-4.39h3.74c2-10.8,9.29-17.86,19.15-17.86a18,18,0,0,1,14,6.48l-5.69,5.76a8.92,8.92,0,0,0-7.28-3.6c-5.68,0-9.36,3.6-10.73,9.22h15l-1.36,4.39H892a11.09,11.09,0,0,0-.15,1.87c0,1.16.07,2,.07,2h13.76l-1.3,4.39H892.79c1.37,5.47,5.11,9,10.65,9a9.36,9.36,0,0,0,8-4.46l6.19,5a18.13,18.13,0,0,1-15.27,8.06C892.57,224.71,885.23,217.66,883.21,207.07Z" transform="translate(0 22)"/>
      <path className="cls-1" d="M921.44,220l3.67-7.13a19.33,19.33,0,0,0,11,3.6c6.48,0,9.51-3.6,9.51-7.49,0-5-4.54-7.41-10.3-7.41a18.31,18.31,0,0,0-8.57,2.37l-3.53-3.24V177.33H953v8.57H932.89v8.57a19.12,19.12,0,0,1,5.47-.79c9.29,0,17.28,5,17.28,14.76,0,10-7.77,16.27-19.22,16.27C930,224.71,925,222.77,921.44,220Z" transform="translate(0 22)"/>
      <path className="cls-1" d="M960.61,217.8c15.77-12.75,23-20.16,23-26.21,0-3.39-2.23-6.27-6.84-6.27-3,0-6.7,1.44-10.51,4.9l-4.9-6.34a22.22,22.22,0,0,1,16.2-7.27c8.86,0,16.2,4.9,16.2,14.11,0,8.86-8.93,18.22-17.57,24.7h19V224H960.61Z" transform="translate(0 22)"/>
      <path className="cls-1" d="M1005.46,214.27h8.72l-6.84,19.59h-6.12Z" transform="translate(0 22)"/>
      <path className="cls-1" d="M1020.3,200.66c0-14.11,7.63-24,18.65-24s18.57,9.94,18.57,24-7.63,24.05-18.57,24.05S1020.3,214.77,1020.3,200.66Zm27.14,0c0-9.07-2.88-15.41-8.49-15.41s-8.65,6.34-8.65,15.41,3,15.41,8.65,15.41S1047.44,209.73,1047.44,200.66Z" transform="translate(0 22)"/>
      <path className="cls-1" d="M1063.21,200.66c0-14.11,7.63-24,18.65-24s18.57,9.94,18.57,24-7.63,24.05-18.57,24.05S1063.21,214.77,1063.21,200.66Zm27.14,0c0-9.07-2.88-15.41-8.49-15.41s-8.64,6.34-8.64,15.41,3,15.41,8.64,15.41S1090.35,209.73,1090.35,200.66Z" transform="translate(0 22)"/>
      <path className="cls-1" d="M885.66,379.87h-6.2l1.16-4.39h4.53a18.16,18.16,0,0,1-.07-2,16.17,16.17,0,0,1,.07-1.87h-4.53l1.29-4.39h3.75c2-10.8,9.29-17.86,19.15-17.86a18,18,0,0,1,14,6.48l-5.69,5.76a8.89,8.89,0,0,0-7.27-3.6c-5.69,0-9.36,3.6-10.73,9.22h15.05l-1.37,4.39h-14.4a11.86,11.86,0,0,0-.14,1.87c0,1.16.07,2,.07,2h13.75l-1.29,4.39h-11.6c1.37,5.47,5.12,9,10.66,9a9.34,9.34,0,0,0,8-4.46l6.2,5a18.13,18.13,0,0,1-15.27,8.06C895,397.51,887.67,390.46,885.66,379.87Z" transform="translate(0 22)"/>
      <path className="cls-1" d="M945.42,387.79h-22v-6.55L941,348.69l8.07,4-14.26,26.5h10.66V369.07h9.29v10.15h5.54v8.57h-5.54v9h-9.29Z" transform="translate(0 22)"/>
      <path className="cls-1" d="M988,358.7H963.49v-8.57H999.2v6.05l-19.73,40.61H969Z" transform="translate(0 22)"/>
      <path className="cls-1" d="M1005.46,387.07h8.72l-6.84,19.59h-6.12Z" transform="translate(0 22)"/>
      <path className="cls-1" d="M1020.3,373.46c0-14.11,7.63-24,18.65-24s18.57,9.94,18.57,24-7.63,24.05-18.57,24.05S1020.3,387.57,1020.3,373.46Zm27.14,0c0-9.07-2.88-15.41-8.49-15.41s-8.65,6.34-8.65,15.41,3,15.41,8.65,15.41S1047.44,382.53,1047.44,373.46Z" transform="translate(0 22)"/>
      <path className="cls-1" d="M1063.21,373.46c0-14.11,7.63-24,18.65-24s18.57,9.94,18.57,24-7.63,24.05-18.57,24.05S1063.21,387.57,1063.21,373.46Zm27.14,0c0-9.07-2.88-15.41-8.49-15.41s-8.64,6.34-8.64,15.41,3,15.41,8.64,15.41S1090.35,382.53,1090.35,373.46Z" transform="translate(0 22)"/>
      <path className="cls-1" d="M881.55,552.67h-6.19l1.15-4.39h4.54a18.16,18.16,0,0,1-.07-1.95,16.09,16.09,0,0,1,.07-1.87h-4.54l1.3-4.39h3.74c2-10.8,9.29-17.86,19.16-17.86a18,18,0,0,1,14,6.48l-5.69,5.76a8.92,8.92,0,0,0-7.27-3.6c-5.69,0-9.36,3.6-10.73,9.22h15.05l-1.37,4.39h-14.4a11.86,11.86,0,0,0-.14,1.87c0,1.16.07,1.95.07,1.95H904l-1.3,4.39H891.13c1.37,5.47,5.11,9,10.66,9a9.35,9.35,0,0,0,8-4.46l6.19,5a18.1,18.1,0,0,1-15.26,8.06C890.92,570.31,883.57,563.25,881.55,552.67Z" transform="translate(0 22)"/>
      <path className="cls-1" d="M918.92,564.84l4.11-6.63c3,2.74,7.27,3.75,11.09,3.75,6,0,10.15-3,10.15-7.78,0-3.67-3.39-6.69-9.22-6.69a12.37,12.37,0,0,0-6.62,1.65l-3.24-5.69,14.11-12h-18v-8.57h30.39v8.28l-11.09,9.72a16.28,16.28,0,0,1,3.74.72c5.76,1.66,9.94,6.27,9.94,12.89,0,10.59-8.79,15.77-19.3,15.77C928.21,570.31,922.59,568.22,918.92,564.84Z" transform="translate(0 22)"/>
      <path className="cls-1" d="M960.46,556A12.05,12.05,0,0,1,968,544.46c-3.17-2.09-4.76-5.47-4.76-9.65,0-7.13,5.69-12.6,15.12-12.6s15.05,5.47,15.05,12.6c0,4.18-1.58,7.56-4.75,9.65A12,12,0,0,1,996.25,556c0,8.5-6.77,14.4-17.86,14.4S960.46,564.48,960.46,556Zm25.64-.86c0-3.82-2.66-7-7.71-7s-7.77,3.17-7.77,7,2.81,6.77,7.77,6.77S986.1,558.93,986.1,555.12ZM984.59,536c0-3.09-2.23-5.68-6.2-5.68s-6.19,2.59-6.19,5.68,2,5.76,6.19,5.76S984.59,539,984.59,536Z" transform="translate(0 22)"/>
      <path className="cls-1" d="M1005.46,559.87h8.72l-6.84,19.59h-6.12Z" transform="translate(0 22)"/>
      <path className="cls-1" d="M1020.3,546.26c0-14.11,7.63-24,18.65-24s18.57,9.94,18.57,24-7.63,24-18.57,24S1020.3,560.37,1020.3,546.26Zm27.14,0c0-9.07-2.88-15.41-8.49-15.41s-8.65,6.34-8.65,15.41,3,15.41,8.65,15.41S1047.44,555.33,1047.44,546.26Z" transform="translate(0 22)"/>
      <path className="cls-1" d="M1063.21,546.26c0-14.11,7.63-24,18.65-24s18.57,9.94,18.57,24-7.63,24-18.57,24S1063.21,560.37,1063.21,546.26Zm27.14,0c0-9.07-2.88-15.41-8.49-15.41s-8.64,6.34-8.64,15.41,3,15.41,8.64,15.41S1090.35,555.33,1090.35,546.26Z" transform="translate(0 22)"/>
      <path className="cls-1" d="M880.33,725.47h-6.19l1.15-4.39h4.54a15.9,15.9,0,0,1-.08-2,14.16,14.16,0,0,1,.08-1.87h-4.54l1.3-4.39h3.74c2-10.8,9.29-17.86,19.15-17.86a18,18,0,0,1,14,6.48l-5.69,5.76a8.92,8.92,0,0,0-7.28-3.6c-5.68,0-9.36,3.6-10.72,9.22h15l-1.36,4.39h-14.4a11.09,11.09,0,0,0-.15,1.87c0,1.16.07,2,.07,2H902.8l-1.3,4.39H889.91c1.37,5.47,5.11,9,10.65,9a9.36,9.36,0,0,0,8-4.46l6.19,5a18.13,18.13,0,0,1-15.27,8.06C889.69,743.11,882.35,736.05,880.33,725.47Z" transform="translate(0 22)"/>
      <path className="cls-1" d="M917.7,736.2c15.77-12.75,23-20.16,23-26.21,0-3.39-2.23-6.27-6.84-6.27-3,0-6.7,1.44-10.52,4.9l-4.89-6.34a22.22,22.22,0,0,1,16.2-7.27c8.86,0,16.2,4.9,16.2,14.11,0,8.86-8.93,18.22-17.57,24.7h19v8.57H917.7Z" transform="translate(0 22)"/>
      <path className="cls-1" d="M959.17,719.06c0-14.11,7.63-24,18.65-24s18.58,9.94,18.58,24-7.64,24.05-18.58,24.05S959.17,733.17,959.17,719.06Zm27.15,0c0-9.07-2.88-15.41-8.5-15.41s-8.64,6.34-8.64,15.41,3,15.41,8.64,15.41S986.32,728.13,986.32,719.06Z" transform="translate(0 22)"/>
      <path className="cls-1" d="M1005.46,732.67h8.72l-6.84,19.59h-6.12Z" transform="translate(0 22)"/>
      <path className="cls-1" d="M1020.3,719.06c0-14.11,7.63-24,18.65-24s18.57,9.94,18.57,24-7.63,24.05-18.57,24.05S1020.3,733.17,1020.3,719.06Zm27.14,0c0-9.07-2.88-15.41-8.49-15.41s-8.65,6.34-8.65,15.41,3,15.41,8.65,15.41S1047.44,728.13,1047.44,719.06Z" transform="translate(0 22)"/>
      <path className="cls-1" d="M1063.21,719.06c0-14.11,7.63-24,18.65-24s18.57,9.94,18.57,24-7.63,24.05-18.57,24.05S1063.21,733.17,1063.21,719.06Zm27.14,0c0-9.07-2.88-15.41-8.49-15.41s-8.64,6.34-8.64,15.41,3,15.41,8.64,15.41S1090.35,728.13,1090.35,719.06Z" transform="translate(0 22)"/>
    </g>
    <g>
      <path className="cls-1" d="M1125.16,206.75h4.45v2.1a7.13,7.13,0,0,1,5.6-2.45c4.83,0,7.91,4.06,7.91,9.07s-3.15,9.13-8,9.13a6.81,6.81,0,0,1-5.29-2.34v7h-4.69Zm13.16,8.75c0-2.76-1.78-4.76-4.34-4.76-2.38,0-4.16,2-4.16,4.76s1.75,4.76,4.16,4.76S1138.32,218.27,1138.32,215.5Z" transform="translate(0 22)"/>
      <path className="cls-1" d="M1145.64,215.5a9,9,0,0,1,9.06-9.1,8.75,8.75,0,0,1,8.51,9,14.83,14.83,0,0,1-.11,1.68h-12.7a4.62,4.62,0,0,0,4.86,3.57,8.75,8.75,0,0,0,4.73-1.36l1.75,3.36a11.84,11.84,0,0,1-6.51,1.92C1150.12,224.6,1145.64,221.28,1145.64,215.5Zm13.16-1.5a4.23,4.23,0,0,0-4.24-3.68,4.38,4.38,0,0,0-4.23,3.68Z" transform="translate(0 22)"/>
      <path className="cls-1" d="M1166.29,206.75h4.62v3.36c.49-1.43,2.27-3.71,6.12-3.71v5.11c-4.06,0-6,1.86-6,6v6.72h-4.69Z" transform="translate(0 22)"/>
      <path className="cls-1" d="M1187.29,201.22H1192V214l6-7.28h5.7l-6.82,7.63,8,9.87h-5.64l-5.25-6.68-2,2.38v4.3h-4.69Z" transform="translate(0 22)"/>
      <path className="cls-1" d="M1205.38,206.75H1210l2.66,9.35a23.36,23.36,0,0,1,.56,2.76,23.66,23.66,0,0,1,.42-2.73l2.13-9.38h4.62l2.14,9.38a27.49,27.49,0,0,1,.45,2.73,20.56,20.56,0,0,1,.53-2.76l2.69-9.35h4.55l-5.6,17.54h-4.23l-2.35-9.45c-.28-1.19-.45-2.66-.45-2.66s-.21,1.47-.49,2.66l-2.35,9.45H1211Z" transform="translate(0 22)"/>
      <path className="cls-1" d="M1231.7,215.5c0-5,3.08-9.1,7.91-9.1a6.84,6.84,0,0,1,5.46,2.49v-2.14h4.59v17.5h-4.59v-2.1a6.75,6.75,0,0,1-5.46,2.45C1234.78,224.6,1231.7,220.54,1231.7,215.5Zm13.27,0c0-2.73-1.75-4.76-4.17-4.76s-4.34,2-4.34,4.76,1.82,4.76,4.34,4.76S1245,218.3,1245,215.5Z" transform="translate(0 22)"/>
      <path className="cls-1" d="M1253.23,206.75h4.62v3.36c.49-1.43,2.27-3.71,6.12-3.71v5.11c-4.06,0-6,1.86-6,6v6.72h-4.69Z" transform="translate(0 22)"/>
      <path className="cls-1" d="M1268.42,218.62v-8.09h-2.56v-3.78h2.56v-3.36l4.69-1v4.41h4.83v3.78h-4.83v8c0,1.5.73,2,1.57,2a4.35,4.35,0,0,0,2.24-.73l1.33,3.46a8.06,8.06,0,0,1-4.44,1.33C1270.3,224.6,1268.42,222.57,1268.42,218.62Z" transform="translate(0 22)"/>
      <path className="cls-1" d="M1279.93,215.5c0-5,3.08-9.1,7.91-9.1a6.84,6.84,0,0,1,5.46,2.49v-2.14h4.59v17.5h-4.59v-2.1a6.75,6.75,0,0,1-5.46,2.45C1283,224.6,1279.93,220.54,1279.93,215.5Zm13.27,0c0-2.73-1.75-4.76-4.17-4.76s-4.34,2-4.34,4.76,1.82,4.76,4.34,4.76S1293.2,218.3,1293.2,215.5Z" transform="translate(0 22)"/>
      <path className="cls-1" d="M1300.93,215.5c0-5,3.08-9.1,7.91-9.1a6.84,6.84,0,0,1,5.46,2.49v-2.14h4.59v17.5h-4.59v-2.1a6.75,6.75,0,0,1-5.46,2.45C1304,224.6,1300.93,220.54,1300.93,215.5Zm13.27,0c0-2.73-1.75-4.76-4.17-4.76s-4.34,2-4.34,4.76,1.82,4.76,4.34,4.76S1314.2,218.3,1314.2,215.5Z" transform="translate(0 22)"/>
      <path className="cls-1" d="M1322.46,201.22h4.69v23h-4.69Z" transform="translate(0 22)"/>
    </g>
    <g>
      <path className="cls-1" d="M1122.92,374.55h4.45v2.1a7.13,7.13,0,0,1,5.6-2.45c4.83,0,7.91,4.06,7.91,9.07s-3.15,9.13-8,9.13a6.81,6.81,0,0,1-5.29-2.34v7h-4.69Zm13.16,8.75c0-2.76-1.78-4.76-4.34-4.76-2.38,0-4.16,2-4.16,4.76s1.75,4.76,4.16,4.76S1136.08,386.07,1136.08,383.3Z" transform="translate(0 22)"/>
      <path className="cls-1" d="M1143.4,383.3a9,9,0,0,1,9.06-9.1,8.75,8.75,0,0,1,8.51,9,14.83,14.83,0,0,1-.11,1.68h-12.7a4.62,4.62,0,0,0,4.86,3.57,8.75,8.75,0,0,0,4.73-1.36l1.75,3.36a11.84,11.84,0,0,1-6.51,1.92C1147.88,392.4,1143.4,389.08,1143.4,383.3Zm13.16-1.5a4.23,4.23,0,0,0-4.24-3.68,4.38,4.38,0,0,0-4.23,3.68Z" transform="translate(0 22)"/>
      <path className="cls-1" d="M1164.05,374.55h4.62v3.36c.49-1.43,2.27-3.71,6.12-3.71v5.11c-4.06,0-6,1.86-6,6v6.72h-4.69Z" transform="translate(0 22)"/>
      <path className="cls-1" d="M1185.05,369h4.69v12.81l6-7.28h5.7l-6.82,7.63,8,9.87H1197l-5.25-6.68-2,2.38v4.3h-4.69Z" transform="translate(0 22)"/>
      <path className="cls-1" d="M1203.14,374.55h4.59l2.66,9.35a23.36,23.36,0,0,1,.56,2.76,23.66,23.66,0,0,1,.42-2.73l2.13-9.38h4.62l2.14,9.38a27.49,27.49,0,0,1,.45,2.73,20.56,20.56,0,0,1,.53-2.76l2.69-9.35h4.55l-5.6,17.54h-4.23l-2.35-9.45c-.28-1.19-.45-2.66-.45-2.66s-.21,1.47-.49,2.66l-2.35,9.45h-4.27Z" transform="translate(0 22)"/>
      <path className="cls-1" d="M1229.46,383.3c0-5,3.08-9.1,7.91-9.1a6.84,6.84,0,0,1,5.46,2.49v-2.14h4.59v17.5h-4.59V390a6.75,6.75,0,0,1-5.46,2.45C1232.54,392.4,1229.46,388.34,1229.46,383.3Zm13.27,0c0-2.73-1.75-4.76-4.17-4.76s-4.34,2-4.34,4.76,1.82,4.76,4.34,4.76S1242.73,386.1,1242.73,383.3Z" transform="translate(0 22)"/>
      <path className="cls-1" d="M1251,374.55h4.62v3.36c.49-1.43,2.27-3.71,6.12-3.71v5.11c-4.06,0-6,1.86-6,6v6.72H1251Z" transform="translate(0 22)"/>
      <path className="cls-1" d="M1266.17,386.42v-8.09h-2.55v-3.78h2.55v-3.36l4.7-1.05v4.41h4.83v3.78h-4.83v8c0,1.5.73,2,1.57,2a4.35,4.35,0,0,0,2.24-.73l1.33,3.46a8.06,8.06,0,0,1-4.44,1.33C1268.06,392.4,1266.17,390.37,1266.17,386.42Z" transform="translate(0 22)"/>
      <path className="cls-1" d="M1277.69,383.3c0-5,3.08-9.1,7.91-9.1a6.84,6.84,0,0,1,5.46,2.49v-2.14h4.59v17.5h-4.59V390a6.75,6.75,0,0,1-5.46,2.45C1280.77,392.4,1277.69,388.34,1277.69,383.3Zm13.27,0c0-2.73-1.75-4.76-4.17-4.76s-4.34,2-4.34,4.76,1.82,4.76,4.34,4.76S1291,386.1,1291,383.3Z" transform="translate(0 22)"/>
      <path className="cls-1" d="M1298.69,383.3c0-5,3.08-9.1,7.91-9.1a6.84,6.84,0,0,1,5.46,2.49v-2.14h4.59v17.5h-4.59V390a6.75,6.75,0,0,1-5.46,2.45C1301.77,392.4,1298.69,388.34,1298.69,383.3Zm13.27,0c0-2.73-1.75-4.76-4.17-4.76s-4.34,2-4.34,4.76,1.82,4.76,4.34,4.76S1312,386.1,1312,383.3Z" transform="translate(0 22)"/>
      <path className="cls-1" d="M1320.21,369h4.7v23h-4.7Z" transform="translate(0 22)"/>
    </g>
    <g>
      <path className="cls-1" d="M1120.92,552.57h4.45v2.1a7.13,7.13,0,0,1,5.6-2.45c4.83,0,7.91,4.06,7.91,9.07s-3.15,9.13-8,9.13a6.81,6.81,0,0,1-5.29-2.34v7h-4.69Zm13.16,8.75c0-2.76-1.78-4.76-4.34-4.76-2.38,0-4.16,2-4.16,4.76s1.75,4.76,4.16,4.76S1134.08,564.09,1134.08,561.32Z" transform="translate(0 22)"/>
      <path className="cls-1" d="M1141.4,561.32a9,9,0,0,1,9.06-9.1,8.75,8.75,0,0,1,8.51,9,14.83,14.83,0,0,1-.11,1.68h-12.7a4.62,4.62,0,0,0,4.86,3.57,8.75,8.75,0,0,0,4.73-1.36l1.75,3.36a11.84,11.84,0,0,1-6.51,1.92C1145.88,570.42,1141.4,567.1,1141.4,561.32Zm13.16-1.5a4.23,4.23,0,0,0-4.24-3.68,4.38,4.38,0,0,0-4.23,3.68Z" transform="translate(0 22)"/>
      <path className="cls-1" d="M1162.05,552.57h4.62v3.36c.49-1.43,2.27-3.71,6.12-3.71v5.11c-4.06,0-6,1.86-6,6v6.72h-4.69Z" transform="translate(0 22)"/>
      <path className="cls-1" d="M1183.05,547h4.69v12.81l6-7.28h5.7l-6.82,7.63,8,9.87H1195l-5.25-6.68-2,2.38v4.3h-4.69Z" transform="translate(0 22)"/>
      <path className="cls-1" d="M1201.14,552.57h4.59l2.66,9.35a23.36,23.36,0,0,1,.56,2.76,23.66,23.66,0,0,1,.42-2.73l2.13-9.38h4.62l2.14,9.38a27.49,27.49,0,0,1,.45,2.73,20.56,20.56,0,0,1,.53-2.76l2.69-9.35h4.55l-5.6,17.54h-4.23l-2.35-9.45c-.28-1.19-.45-2.66-.45-2.66s-.21,1.47-.49,2.66l-2.35,9.45h-4.27Z" transform="translate(0 22)"/>
      <path className="cls-1" d="M1227.46,561.32c0-5,3.08-9.1,7.91-9.1a6.81,6.81,0,0,1,5.46,2.49v-2.14h4.59v17.5h-4.59V568a6.75,6.75,0,0,1-5.46,2.45C1230.54,570.42,1227.46,566.36,1227.46,561.32Zm13.27,0c0-2.73-1.75-4.76-4.17-4.76s-4.34,2-4.34,4.76,1.82,4.76,4.34,4.76S1240.73,564.12,1240.73,561.32Z" transform="translate(0 22)"/>
      <path className="cls-1" d="M1249,552.57h4.62v3.36c.49-1.43,2.27-3.71,6.12-3.71v5.11c-4.06,0-6,1.86-6,6v6.72H1249Z" transform="translate(0 22)"/>
      <path className="cls-1" d="M1264.17,564.44v-8.09h-2.55v-3.78h2.55v-3.36l4.7-1.05v4.41h4.83v3.78h-4.83v8c0,1.5.73,2,1.57,2a4.35,4.35,0,0,0,2.24-.73l1.33,3.46a8.06,8.06,0,0,1-4.44,1.33C1266.06,570.42,1264.17,568.39,1264.17,564.44Z" transform="translate(0 22)"/>
      <path className="cls-1" d="M1275.69,561.32c0-5,3.08-9.1,7.91-9.1a6.81,6.81,0,0,1,5.46,2.49v-2.14h4.59v17.5h-4.59V568a6.75,6.75,0,0,1-5.46,2.45C1278.77,570.42,1275.69,566.36,1275.69,561.32Zm13.27,0c0-2.73-1.75-4.76-4.17-4.76s-4.34,2-4.34,4.76,1.82,4.76,4.34,4.76S1289,564.12,1289,561.32Z" transform="translate(0 22)"/>
      <path className="cls-1" d="M1296.69,561.32c0-5,3.08-9.1,7.91-9.1a6.81,6.81,0,0,1,5.46,2.49v-2.14h4.59v17.5h-4.59V568a6.75,6.75,0,0,1-5.46,2.45C1299.77,570.42,1296.69,566.36,1296.69,561.32Zm13.27,0c0-2.73-1.75-4.76-4.17-4.76s-4.34,2-4.34,4.76,1.82,4.76,4.34,4.76S1310,564.12,1310,561.32Z" transform="translate(0 22)"/>
      <path className="cls-1" d="M1318.21,547h4.7v23h-4.7Z" transform="translate(0 22)"/>
    </g>
    <g>
      <path className="cls-1" d="M1120,733.93a9,9,0,0,1,9.06-9.11,8.76,8.76,0,0,1,8.51,9,14.83,14.83,0,0,1-.11,1.68h-12.7a4.63,4.63,0,0,0,4.86,3.57,8.68,8.68,0,0,0,4.73-1.37l1.75,3.36a11.77,11.77,0,0,1-6.51,1.93C1124.51,743,1120,739.7,1120,733.93Zm13.16-1.51a4.22,4.22,0,0,0-4.24-3.67,4.37,4.37,0,0,0-4.23,3.67Z" transform="translate(0 22)"/>
      <path className="cls-1" d="M1140.15,733.93a9,9,0,0,1,9.07-9.11,8.75,8.75,0,0,1,8.5,9,16.29,16.29,0,0,1-.1,1.68h-12.71a4.64,4.64,0,0,0,4.87,3.57,8.62,8.62,0,0,0,4.72-1.37l1.75,3.36a11.74,11.74,0,0,1-6.51,1.93C1144.63,743,1140.15,739.7,1140.15,733.93Zm13.16-1.51a4.22,4.22,0,0,0-4.23-3.67,4.39,4.39,0,0,0-4.24,3.67Z" transform="translate(0 22)"/>
      <path className="cls-1" d="M1160.8,725.17h4.59v2.35a6.51,6.51,0,0,1,5.53-2.7c4.62,0,6.23,3,6.23,7.78v10.08h-4.69v-9.49c0-2.55-.67-3.92-3-3.92s-3.92,1.89-3.92,4.55v8.86h-4.69Z" transform="translate(0 22)"/>
      <path className="cls-1" d="M1180.47,725.17h4.59v2.35a6.32,6.32,0,0,1,5.18-2.7c2.76,0,4.48,1.16,5.39,3.12a6.76,6.76,0,0,1,5.67-3.12c4.93,0,6.47,3.4,6.47,7.88v10h-4.69V733.3c0-2.31-.56-4-3-4-2.31,0-3.57,1.85-3.57,4.17v9.24h-4.69V733.3c0-2.31-.53-4-3-4s-3.57,2-3.57,4.34v9.07h-4.69Z" transform="translate(0 22)"/>
      <path className="cls-1" d="M1210.57,733.93c0-5,3.08-9.11,7.91-9.11a6.84,6.84,0,0,1,5.46,2.49v-2.14h4.59v17.51h-4.59v-2.1a6.75,6.75,0,0,1-5.46,2.45C1213.65,743,1210.57,739,1210.57,733.93Zm13.27,0c0-2.73-1.75-4.76-4.17-4.76s-4.34,2-4.34,4.76,1.82,4.76,4.34,4.76S1223.84,736.73,1223.84,733.93Z" transform="translate(0 22)"/>
      <path className="cls-1" d="M1232.09,719.64h4.7v23h-4.7Z" transform="translate(0 22)"/>
      <path className="cls-1" d="M1239.9,720.27a2.78,2.78,0,1,1,2.77,2.77A2.8,2.8,0,0,1,1239.9,720.27Zm.45,4.9H1245v17.51h-4.69Z" transform="translate(0 22)"/>
      <path className="cls-1" d="M1249.35,745.65l1.75-2.94a8.66,8.66,0,0,0,5.07,1.58c3.26,0,4.91-2,5-4.76a1.58,1.58,0,0,0,0-.39,5.91,5.91,0,0,1-5.25,2.59c-4.87,0-7.91-3.78-7.91-8.43s3-8.48,7.91-8.48c2.24,0,4.55,1,5.5,2.73v-2.38h4.44v13.27c0,5.74-3.46,9.38-9.27,9.38A11.52,11.52,0,0,1,1249.35,745.65Zm11.94-12.46a4.22,4.22,0,1,0-4.24,4.45A4.18,4.18,0,0,0,1261.29,733.19Z" transform="translate(0 22)"/>
    </g>
  </g>
</svg>
