<svg xmlns="http://www.w3.org/2000/svg" xmlns:xlink="http://www.w3.org/1999/xlink" viewBox="0 0 1920 588"><defs><style>.cls-1{fill:none;}.cls-2{clip-path:url(#clip-path);}.cls-3{fill:#fff;}</style><clipPath id="clip-path"><rect class="cls-1" x="86.23" y="115.48" width="1747.54" height="357.03"/></clipPath></defs><g id="Layer_1" data-name="Layer 1"><g id="Naam"><g class="cls-2"><g class="cls-2"><path class="cls-3" d="M352.77,115.48q0,111.09,0,222.17c0,68.43-49,124.3-117,133.33C164.9,480.4,97.16,428.9,87.54,358.27c-9.9-72.74,37.27-138.36,109.74-150.47,49.08-8.19,90.5,7.82,123.73,44.81,1.34,1.49,2.57,3.07,4.64,5.57V115.48ZM219.08,444.87c58.72,0,106.49-47.57,106.57-106.14A106.52,106.52,0,0,0,219.23,232.05c-58.92-.06-106.74,47.57-106.76,106.33A106.53,106.53,0,0,0,219.08,444.87"/><path class="cls-3" d="M975,115.48q0,111.09,0,222.16C975,406.08,926,462,858,471c-70.89,9.42-138.63-42.08-148.25-112.71-9.9-72.74,37.27-138.36,109.74-150.46,49.08-8.2,90.5,7.81,123.73,44.8,1.33,1.49,2.57,3.07,4.64,5.57V115.48Zm-240.3,223A106.54,106.54,0,0,0,841,444.88c59,.08,106.8-47.49,106.86-106.24a106.59,106.59,0,0,0-213.18-.17"/><path class="cls-3" d="M1833.77,472h-27V419.62c-1.51,1.7-2.37,2.64-3.21,3.6-36.4,41.41-81.94,57.74-135.42,44.35s-86.77-49-98.31-102.9c-15.89-74.19,36.4-147.13,111.68-157.57,74.42-10.32,142.06,41.41,151.35,115.74.26,2.08.61,4.15.92,6.22Zm-133.69-27.08c58.72,0,106.48-47.58,106.57-106.15a106.53,106.53,0,0,0-106.43-106.67c-58.92-.05-106.73,47.57-106.75,106.34a106.53,106.53,0,0,0,106.61,106.48"/><path class="cls-3" d="M1356.93,115.48V367.25l1,.7a27,27,0,0,1,2.06-3q69-75.42,137.9-150.85a8.84,8.84,0,0,1,7.43-3.21c10,.2,20.08.07,31.26.07l-102.9,112.47,124,148.49c-5.77,0-10.72,0-15.67,0-6.14,0-13.12,1.69-18.2-.66s-8.29-8.74-12.22-13.44q-46.39-55.51-92.76-111.08c-.94-1.13-2-2.2-3.19-3.58l-16.6,18.14c-13.29,14.5-26.62,28.95-39.78,43.56a9.65,9.65,0,0,0-2.26,5.93c-.17,20.17-.1,40.34-.1,60.83h-26.37V115.48Z"/><path class="cls-3" d="M1285.19,351.62H1046.38c6.8,39.78,27.18,69.39,64.42,84.47,48.51,19.65,90.28,6.84,125.43-30.94l18.3,19.11c-30.19,39.28-96.28,64.42-159,34.78s-92.16-102.91-67.35-167.59a133.14,133.14,0,0,1,162.32-80.24c69.29,20.57,101.31,86.74,94.68,140.41m-27.29-26.49c-5-48.8-49.23-95.76-110.48-92.9-61.59,2.89-97.27,53.07-100.33,92.9Z"/><path class="cls-3" d="M397.22,338.63c.07-73.39,59.86-132.94,133.45-132.9a133.24,133.24,0,0,1,133.22,133.5C663.76,412.6,603.9,472,530.25,472a133.26,133.26,0,0,1-133-133.32m26.36-.18a106.56,106.56,0,0,0,106.3,106.43c59,.09,106.82-47.47,106.89-106.22a106.6,106.6,0,0,0-213.19-.21"/></g></g></g></g></svg>