<svg xmlns="http://www.w3.org/2000/svg" xmlns:xlink="http://www.w3.org/1999/xlink" viewBox="0 0 1080 1080"><defs><style>.cls-1{fill:none;}.cls-2{clip-path:url(#clip-path);}.cls-3{fill:#001d48;}</style><clipPath id="clip-path"><rect class="cls-1" x="254.46" y="16" width="571.07" height="1048"/></clipPath></defs><g id="Layer_1" data-name="Layer 1"><g id="D_met_Naam_Blauw" data-name="D met Naam Blauw"><g class="cls-2"><path class="cls-3" d="M254.46,465.14c.63-6,1.19-12.08,1.88-18.1,12.94-113.82,96.42-208.49,207.71-235.46,53-12.84,105.31-10.18,156.85,7.64.84.29,1.67.58,2.52.85a4.82,4.82,0,0,0,1,0V16h23.29q0,105.41-.06,210.8c0,2.57.7,3.86,3.08,5a268,268,0,0,1,49.45,31.06c.74.58,1.53,1.09,2.76,2V16h23.29V492.89H702.94c0-2.16-.05-4.44,0-6.7.6-24.37-2.82-48.14-12.45-70.57C663.84,353.54,617,316.7,549.9,308.21c-92.77-11.75-177.79,54-191,146.31A184.51,184.51,0,0,0,357,480c-.17,48.24-.1,96.48-.08,144.72A173,173,0,0,0,469.3,786.87c103,38.62,216.15-28.09,231.63-136.77,1.64-11.58,1.39-23.43,2-35.15.07-1.2,0-2.41,0-3.85h23.14c0,7.54.37,15.06-.05,22.54-2.92,52.12-22.77,96.76-60.45,132.94-34,32.62-74.83,50.69-121.85,54-100.83,7-189.41-62.33-207.08-162.12a194.25,194.25,0,0,1-2.87-32.74c-.3-48.91-.2-97.81-.12-146.72.16-95.74,70.36-177.8,165-192.94A196.24,196.24,0,0,1,701,383.51c.43.76.89,1.51,1.69,2.86.11-1.51.23-2.42.23-3.33q0-41.42.06-82.84a6.28,6.28,0,0,0-2.29-5.14c-41.65-37.89-90.38-60.26-146.45-65.5-128-12-242.44,71.69-270.14,197.07a233.94,233.94,0,0,0-5.64,48.82c-.32,43.69-.71,87.38-.63,131.06,0,26.41,1.5,52.7,7.83,78.57,23.82,97.41,105.42,172.69,204.22,188.06,133.06,20.68,256.94-63.9,285.9-195.25a244.09,244.09,0,0,0,5.67-52.81V611h23.27c0,.41,0,.77,0,1.18,1.48,49.78-8,97.27-32.1,141C727.69,834.94,658.82,883.8,566.48,896.9,421,917.52,285.5,818.7,259.06,674c-1.95-10.66-2.71-21.54-4-32.31-.15-1.18-.37-2.36-.57-3.53Z"/><rect class="cls-3" x="781.46" y="16" width="23.29" height="476.84"/><path class="cls-3" d="M647.6,493H624.35c0-4.5,0-9,0-13.48a93.77,93.77,0,0,0-6.23-34.15c-15.61-40.79-56.62-65.29-100.35-60-42,5.09-75.88,38.79-81.55,81.19a98,98,0,0,0-.81,12.93q-.09,72.53,0,145a94.5,94.5,0,0,0,99.4,94.7c46-2.11,84.69-38.73,88.92-84.61.71-7.68.64-15.49.64-23.5h23.34c.15,9.51.2,19-1,28.38-7,52.42-45,92-96.9,101.42-64.31,11.71-127.56-34.21-136.34-99.08a137,137,0,0,1-1.25-18.22q-.15-71.68-.05-143.37c0-60.61,43.18-109.95,103.27-118,62.54-8.42,122.6,37.2,130.89,99.7,1.35,10.16,1.35,20.57,1.35,31.11"/><path class="cls-3" d="M254.46,1016.09c.57-2.11,1.09-4.23,1.71-6.32,7.65-25.5,38.33-37.84,61.82-24.88,1.06.58,2.09,1.2,3.58,2.05V955.12H340.3v3q0,31.61,0,63.19c0,21.25-16.85,40.13-37.35,42-24.05,2.21-43.77-12-47.88-34.43a7.49,7.49,0,0,0-.6-1.49ZM273,1021.8a24.34,24.34,0,0,0,48.68.12,24.34,24.34,0,1,0-48.68-.12"/><path class="cls-3" d="M786.11,1064v-7.51l-3.17,1.78c-24.38,13.78-56.39.25-62.84-26.56-6.57-27.27,15.18-53.33,43.28-51.88,20.18,1,36.37,14.35,40.29,33.39a62.14,62.14,0,0,1,1,11.89c.12,13,0,25.92,0,38.89Zm-48.67-42.19a24.34,24.34,0,0,0,48.67.09,24.34,24.34,0,1,0-48.67-.09"/><path class="cls-3" d="M637.73,1064V955.1h18.08v63l.71.34c.82-.92,1.68-1.83,2.47-2.78,9-10.7,17.88-21.45,27-32.06a6.71,6.71,0,0,1,4.4-2c6.27-.23,12.54-.1,19.61-.1l-31.7,36c8.92,10.58,17.69,21,26.47,31.39q6.4,7.61,12.85,15.19h-22l-28.37-34c-3.34,4-6.65,7.69-9.69,11.62a8.22,8.22,0,0,0-1.59,4.43c-.24,6-.21,11.93-.27,17.9Z"/><path class="cls-3" d="M516.11,987.17V955.08H534.4c.07.91.19,1.86.19,2.81,0,21.29,0,42.57,0,63.86-.06,20.65-16.54,39.2-36.79,41.53-22.82,2.62-42.93-10.77-47.93-31.91-6.45-27.21,15.67-53.19,43.77-51.54a44.72,44.72,0,0,1,22.48,7.34m-24.35,10.16a24.15,24.15,0,0,0-24.47,24.37A24.34,24.34,0,0,0,516,1022a24.28,24.28,0,0,0-24.2-24.69"/><path class="cls-3" d="M625.64,1028.09H564.82c1.23,6.44,4.16,11.43,9.35,14.89,9.79,6.51,20.18,5.52,30.61,1.91a75.55,75.55,0,0,0,8.2-4c2.27,4.2,4.56,8.48,7,13a50.27,50.27,0,0,1-22.29,9c-13.74,1.94-26.49-.38-37.55-9.35-12.65-10.25-17.54-28.15-12.27-45,4.86-15.52,19.33-26.91,35-28.65,26.22-2.92,45.32,20.87,43.09,43.7-.13,1.32-.21,2.64-.35,4.41m-17.28-13.42a21.82,21.82,0,0,0-22.9-19c-10.4.65-20.22,9.8-20.41,19Z"/><path class="cls-3" d="M394.5,1063.63c-23.9,0-42.92-18.58-42.88-41.94s19.2-42.05,42.94-41.92,42.84,18.84,42.77,42.15c-.08,23.13-19.13,41.69-42.83,41.71m-24.36-42a24.34,24.34,0,0,0,48.67.43,24.34,24.34,0,1,0-48.67-.43"/><path class="cls-3" d="M608.8,575.65l5.09-10.78A33.55,33.55,0,0,0,635.15,572c5.39,0,12-2.5,12-7.59s-5.78-6.28-11.47-7.68c-12.08-2.8-24.55-6.89-24.55-20.36,0-12.47,11.67-18.66,24-18.66a40.87,40.87,0,0,1,23.65,6.89l-5.09,10.77a34.67,34.67,0,0,0-18.56-5.19c-3.4,0-9.78,1.3-9.78,6.19,0,4.19,4.69,5.69,11.08,7.19,11.47,2.69,25.24,7,25.24,20.85s-13.57,20.06-26.54,20.06c-15.47,0-22.76-5.89-26.35-8.78"/><path class="cls-3" d="M708.39,519.76h13.78l28.14,64.67H736.14l-4.39-10.28H698.91l-4.39,10.28H680.25Zm19,43.52-7.48-18.47c-2-4.89-4.49-11.37-4.59-11.57-.1.2-2.6,6.68-4.59,11.57l-7.49,18.47Z"/><path class="cls-3" d="M760.77,519.67H775l14.17,37.82c1.4,3.69,3.79,10.88,3.89,11.38.2-.5,2.5-7.69,3.9-11.38l14.37-37.82h14.17l-25.15,64.77H785.92Z"/></g></g></g></svg>