<?xml version="1.0" encoding="utf-8"?>
<!-- Generator: Adobe Illustrator 23.0.1, SVG Export Plug-In . SVG Version: 6.00 Build 0)  -->
<!DOCTYPE svg PUBLIC "-//W3C//DTD SVG 1.1//EN" "http://www.w3.org/Graphics/SVG/1.1/DTD/svg11.dtd" [
	<!ENTITY ns_extend "http://ns.adobe.com/Extensibility/1.0/">
	<!ENTITY ns_ai "http://ns.adobe.com/AdobeIllustrator/10.0/">
	<!ENTITY ns_graphs "http://ns.adobe.com/Graphs/1.0/">
	<!ENTITY ns_vars "http://ns.adobe.com/Variables/1.0/">
	<!ENTITY ns_imrep "http://ns.adobe.com/ImageReplacement/1.0/">
	<!ENTITY ns_sfw "http://ns.adobe.com/SaveForWeb/1.0/">
	<!ENTITY ns_custom "http://ns.adobe.com/GenericCustomNamespace/1.0/">
	<!ENTITY ns_adobe_xpath "http://ns.adobe.com/XPath/1.0/">
]>
<svg version="1.1" id="Livello_1" xmlns:x="&ns_extend;" xmlns:i="&ns_ai;" xmlns:graph="&ns_graphs;"
	 xmlns="http://www.w3.org/2000/svg" xmlns:xlink="http://www.w3.org/1999/xlink" x="0px" y="0px" viewBox="0 0 2016.6 1816.2"
	 style="enable-background:new 0 0 2016.6 1816.2;" xml:space="preserve">
<style type="text/css">
	.st0{fill-rule:evenodd;clip-rule:evenodd;fill:#5F6368;}
	.st1{fill:#63666A;}
	.st2{fill:#34A853;}
	.st3{fill:#FBBC04;}
	.st4{fill:#4285F4;}
	.st5{fill:#1A73E8;}
	.st6{fill:#EA4335;}
</style>
<metadata>
	<sfw  xmlns="&ns_sfw;">
		<slices></slices>
		<sliceSourceBounds  bottomLeftOrigin="true" height="1816.2" width="2016.6" x="0" y="-0.1"></sliceSourceBounds>
	</sfw>
</metadata>
<g>
	<g>
		<path class="st0" d="M1023.1,1637.6l82.8-34.4c-4.6-11.6-18.2-19.6-34.4-19.6C1050.8,1583.5,1022.1,1601.8,1023.1,1637.6
			 M1120.3,1670.9l31.6,21c-10.2,15.1-34.7,41.1-77.2,41.1c-52.6,0-90.6-40.7-90.6-92.6c0-55.1,38.3-92.6,86.1-92.6
			c48.1,0,71.6,38.2,79.3,58.9l4.2,10.5l-123.8,51.2c9.5,18.6,24.2,28.1,44.9,28.1C1095.4,1696.5,1109.8,1686.3,1120.3,1670.9
			 M919.6,1727.4h40.7v-272.2h-40.7V1727.4z M853.2,1640.7c0-32.6-21.8-56.5-49.5-56.5c-28,0-51.6,23.9-51.6,56.5
			c0,32.3,23.5,55.8,51.6,55.8C831.5,1696.5,853.2,1673,853.2,1640.7z M889,1553.4v166.3c0,68.4-40.3,96.5-88,96.5
			c-44.9,0-71.9-30.2-82.1-54.7l35.4-14.7c6.3,15.1,21.8,33,46.7,33c30.5,0,49.5-18.9,49.5-54.4v-13.3H849
			c-9.1,11.2-26.7,21.1-48.8,21.1c-46.3,0-88.8-40.3-88.8-92.3c0-52.3,42.4-93,88.8-93c22.1,0,39.7,9.8,48.8,20.7h1.4v-15.1
			C850.4,1553.4,889,1553.4,889,1553.4z M444.9,1640.4c0-33.3-23.8-56.1-51.3-56.1c-27.6,0-51.3,22.8-51.3,56.1
			c0,33,23.8,56.1,51.3,56.1S444.9,1673.3,444.9,1640.4 M484.9,1640.4c0,53.3-41,92.6-91.3,92.6s-91.3-39.3-91.3-92.6
			c0-53.7,41-92.6,91.3-92.6S484.9,1586.7,484.9,1640.4 M649.5,1640.4c0-33.3-23.8-56.1-51.3-56.1c-27.6,0-51.3,22.8-51.3,56.1
			c0,33,23.8,56.1,51.3,56.1S649.5,1673.3,649.5,1640.4 M689.5,1640.4c0,53.3-41,92.6-91.3,92.6s-91.3-39.3-91.3-92.6
			c0-53.7,41-92.6,91.3-92.6S689.5,1586.7,689.5,1640.4 M145.9,1733C66.7,1733,0,1668.4,0,1589.2c0-79.3,66.7-143.9,145.9-143.9
			c43.9,0,75.1,17.2,98.6,39.7l-27.7,27.7c-16.8-15.8-39.6-28.1-70.9-28.1c-57.9,0-103.2,46.7-103.2,104.5
			c0,57.9,45.3,104.5,103.2,104.5c37.5,0,58.9-15.1,72.6-28.8c11.2-11.2,18.6-27.4,21.4-49.5h-94V1576h132.2
			c1.4,7,2.1,15.4,2.1,24.5c0,29.5-8.1,66-34,91.9C221,1718.9,188.7,1733,145.9,1733"/>
		<g id="flowRoot2998" transform="matrix(4.2191115,0,0,4.2191115,-384.028,-1510.8399)">
			<path id="path3911" class="st1" d="M387.2,766.9v-57.3h7.4l19.9,34.9h0.3l19.9-34.9h7.4v57.3h-7.4v-34l0.3-9.6h-0.3l-17.9,31.4
				h-4.3l-17.9-31.4h-0.3l0.3,9.6v34H387.2z"/>
			<path id="path3913" class="st1" d="M464.7,768.2c-4.2,0-7.6-1.2-10.4-3.6c-2.8-2.4-4.2-5.6-4.2-9.5c0-4.3,1.7-7.6,5-10
				s7.4-3.6,12.2-3.6c4.3,0,7.9,0.8,10.6,2.4v-1.1c0-2.9-1-5.2-3-6.9s-4.4-2.6-7.3-2.6c-2.1,0-4.1,0.5-5.8,1.5
				c-1.7,1-2.9,2.4-3.6,4.2l-6.7-2.9c0.9-2.3,2.7-4.5,5.4-6.5c2.7-2,6.2-3,10.6-3c5,0,9.2,1.5,12.5,4.4s5,7.1,5,12.4v23.7h-7v-5.4
				h-0.3C474.7,765.9,470.4,768.2,464.7,768.2z M465.9,761.4c3,0,5.8-1.1,8.3-3.4c2.5-2.3,3.7-4.9,3.7-8c-2.1-1.7-5.2-2.6-9.4-2.6
				c-3.6,0-6.3,0.8-8.1,2.3c-1.8,1.5-2.7,3.4-2.7,5.4c0,1.9,0.8,3.4,2.5,4.6S463.8,761.4,465.9,761.4z"/>
			<path id="path3915" class="st1" d="M513.7,768.2c-3,0-5.7-0.6-8-1.9s-4.1-2.9-5.3-4.8H500l0.3,5.4v17.3H493v-56.5h7v5.4h0.3
				c1.2-1.9,2.9-3.5,5.3-4.8s5.1-1.9,8-1.9c5.1,0,9.4,2,13.1,6c3.7,4,5.5,9,5.5,14.9s-1.8,10.9-5.5,14.9
				C523.1,766.2,518.7,768.2,513.7,768.2z M512.5,761.4c3.4,0,6.3-1.3,8.8-3.9c2.5-2.6,3.7-6,3.7-10.3s-1.2-7.7-3.7-10.3
				s-5.4-3.9-8.8-3.9c-3.5,0-6.4,1.3-8.8,3.8c-2.4,2.6-3.6,6-3.6,10.3s1.2,7.8,3.6,10.3C506.1,760.2,509,761.4,512.5,761.4z"/>
			<path id="path3917" class="st1" d="M553.6,768.2c-4.4,0-8-1.1-10.8-3.2c-2.9-2.1-4.9-4.8-6.3-8l6.6-2.7c2.1,4.9,5.6,7.4,10.6,7.4
				c2.3,0,4.2-0.5,5.6-1.5c1.5-1,2.2-2.3,2.2-4c0-2.6-1.8-4.3-5.4-5.2l-7.9-1.9c-2.5-0.6-4.9-1.9-7.1-3.6s-3.4-4.2-3.4-7.2
				c0-3.5,1.5-6.3,4.6-8.4c3.1-2.2,6.7-3.2,10.9-3.2c3.5,0,6.6,0.8,9.3,2.4c2.7,1.6,4.7,3.8,5.8,6.8l-6.4,2.6
				c-1.4-3.5-4.4-5.2-9-5.2c-2.2,0-4,0.5-5.5,1.4s-2.2,2.1-2.2,3.7c0,2.2,1.7,3.8,5.2,4.6l7.8,1.8c3.7,0.9,6.4,2.3,8.2,4.4
				c1.8,2.1,2.6,4.4,2.6,7c0,3.5-1.4,6.5-4.3,8.8C561.9,767,558.2,768.2,553.6,768.2z"/>
		</g>
	</g>
	<g id="g842" transform="translate(-583.2646,52.894413)">
		<path id="path835" class="st2" d="M1414.2,856.6c37.9,47.4,76.5,106.8,96.7,142.8c24.6,46.8,34.8,78.4,53.1,134.6
			c10.7,31,20.9,40.4,42.3,40.4c23.4,0,34.1-15.8,42.3-40.4c17.1-53.1,30.3-93.5,51.2-132.1c41.1-73.9,92.9-139.7,143.5-202.9
			c13.9-17.7,102.4-122,142.2-204.8c0,0,48.7-90.4,48.7-216.8c0-118.2-48-200.3-48-200.3l-139,37.3l-84.7,222.5l-20.9,30.3l-4.4,5.7
			l-5.7,7l-9.5,11.4l-13.9,13.9l-75.2,61.3l-187.7,108.7L1414.2,856.6z"/>
		<path id="path833" class="st3" d="M1220.2,579.1c46.1,104.9,134,196.6,194,277.5l317.9-376.7c0,0-44.9,58.8-125.8,58.8
			c-90.4,0-163.7-72-163.7-163.1c0-62.6,37.3-105.5,37.3-105.5l-215.5,57.5L1220.2,579.1z"/>
		<path id="path831" class="st4" d="M1735.9-33.3c105.5,34.1,195.9,105.5,250.3,211.1l-254.1,302.7c0,0,37.3-43.6,37.3-105.5
			c0-92.9-78.4-163.1-163.1-163.1c-80.3,0-126.4,58.1-126.4,58.1V79.2L1735.9-33.3z"/>
		<path id="path829" class="st5" d="M1278.3,100.1c63.2-75.2,173.8-152.9,326.7-152.9c73.9,0,130.2,19.6,130.2,19.6l-255.3,303.4
			h-180.8L1278.3,100.1z"/>
		<path id="path827" class="st6" d="M1220.2,579.1c0,0-41.7-82.8-41.7-202.2c0-113.1,44.2-211.7,100.5-276.2l201.6,170L1220.2,579.1
			z"/>
	</g>
</g>
</svg>
