<svg xmlns="http://www.w3.org/2000/svg" xmlns:xlink="http://www.w3.org/1999/xlink" viewBox="0 0 1080 1080"><defs><style>.cls-1{fill:none;}.cls-2{clip-path:url(#clip-path);}.cls-3{clip-path:url(#clip-path-2);}.cls-4{fill:#001d48;}</style><clipPath id="clip-path"><rect class="cls-1" x="213.6" y="16" width="652.8" height="1048"/></clipPath><clipPath id="clip-path-2"><rect class="cls-1" x="213.6" y="16" width="652.8" height="1048"/></clipPath></defs><g id="Layer_1" data-name="Layer 1"><g id="mini_D_Blauw" data-name="mini D Blauw"><g class="cls-2"><g class="cls-3"><path class="cls-4" d="M866.22,723.12c0-.48,0-.9,0-1.39V16H838.63V721.73c0,5.69,0,11.17,0,16.66A290,290,0,0,1,831.91,801c-34.35,155.78-181.28,256.1-339.09,231.56-117.18-18.22-213.95-107.51-242.21-223-7.5-30.69-9.23-61.87-9.29-93.19-.08-51.81.37-103.63.76-155.44a277.23,277.23,0,0,1,6.68-57.9c32.86-148.7,168.55-247.94,320.39-233.74,66.51,6.22,124.31,32.76,173.7,77.69a7.48,7.48,0,0,1,2.72,6.09c-.1,32.76-.06,65.51-.07,98.26,0,1.07-.15,2.15-.28,3.95-1-1.61-1.49-2.49-2-3.4a232.73,232.73,0,0,0-240-115.62C391,354.22,307.72,451.53,307.53,565.08c-.09,58-.22,116,.14,174a231.66,231.66,0,0,0,3.4,38.83c21,118.36,126,200.62,245.61,192.29,55.77-3.88,104.22-25.32,144.52-64,44.69-42.92,68.22-95.86,71.69-157.67.49-8.88.07-17.8.07-26.74l.17-140.2V16H745.51V311.12c-1.46-1-2.41-1.63-3.28-2.32A318.12,318.12,0,0,0,683.58,272c-2.82-1.36-3.65-2.89-3.64-5.94q.13-125,.06-250H652.39v242a6.75,6.75,0,0,1-1.19,0c-1-.32-2-.67-3-1q-91.69-31.71-186-9c-132,32-231,144.25-246.36,279.25-.81,7.14-1.48,14.31-2.22,21.47V753.89c.23,1.39.49,2.79.67,4.19,1.57,12.78,2.47,25.68,4.78,38.32,31.37,171.63,192,288.84,364.62,264.37,109.51-15.52,191.19-73.48,244.47-170.37,28.55-51.9,39.83-108.22,38.08-167.28m-120.71-1.31c0,1.71.06,3.14,0,4.57-.72,13.9-.42,28-2.38,41.68-18.36,128.9-152.59,208-274.71,162.22A205.11,205.11,0,0,1,335.14,738c0-57.22-.11-114.43.1-171.64a219,219,0,0,1,2.21-30.26C353.13,426.67,454,348.64,564,362.57c79.52,10.07,135.13,53.77,166.76,127.4,11.42,26.6,15.47,54.8,14.76,83.69-.07,2.69,0,5.39,0,8Z"/><path class="cls-4" d="M679.88,581.75c0-12.5,0-24.85-1.6-36.89C668.44,470.73,597.2,416.63,523,426.61c-71.27,9.6-122.47,68.13-122.48,140q0,85,.06,170a162.66,162.66,0,0,0,1.48,21.61c10.42,76.94,85.43,131.4,161.71,117.51,61.53-11.21,106.58-58.11,114.92-120.29,1.49-11.09,1.42-22.38,1.25-33.65Zm-27.6,140.09c0,9.5.09,18.75-.75,27.86-5,54.42-50.86,97.86-105.46,100.36-64.61,3-117.84-47.7-117.89-112.32q-.07-86,0-172a117.45,117.45,0,0,1,1-15.34c6.72-50.29,46.92-90.26,96.72-96.29,51.87-6.27,100.51,22.79,119,71.16a111,111,0,0,1,7.39,40.51c0,5.32,0,10.65,0,16V721.84Z"/></g></g></g></g></svg>