<svg xmlns="http://www.w3.org/2000/svg" xmlns:xlink="http://www.w3.org/1999/xlink" viewBox="0 0 1080 1080"><defs><style>.cls-1{fill:none;}.cls-2{clip-path:url(#clip-path);}.cls-3{clip-path:url(#clip-path-2);}.cls-4{fill:#fff;}</style><clipPath id="clip-path"><rect class="cls-1" x="213.6" y="16" width="652.8" height="1048"/></clipPath><clipPath id="clip-path-2"><rect class="cls-1" x="213.6" y="16" width="652.8" height="1048"/></clipPath></defs><g id="Layer_1" data-name="Layer 1"><g id="mini_D" data-name="mini D"><g class="cls-2"><g class="cls-3"><path class="cls-4" d="M866.22,723.12c0-.48,0-.9,0-1.39l0-140.17V16H838.63V738.39A289.1,289.1,0,0,1,831.91,801c-34.35,155.79-181.27,256.1-339.08,231.57-117.2-18.22-214-107.51-242.22-223-7.51-30.69-9.23-61.87-9.28-93.19-.1-51.81.37-103.63.74-155.45A277.89,277.89,0,0,1,248.76,503c32.86-148.7,168.54-247.94,320.39-233.74C635.66,275.51,693.46,302,742.85,347a7.48,7.48,0,0,1,2.72,6.1q-.14,49.13-.07,98.25c0,1.07-.15,2.15-.27,3.95-1-1.61-1.51-2.49-2-3.39a232.74,232.74,0,0,0-240-115.63C391,354.22,307.72,451.54,307.53,565.08c-.09,58-.21,116,.14,174a231.66,231.66,0,0,0,3.4,38.83c21,118.35,126,200.61,245.61,192.29,55.77-3.88,104.22-25.32,144.52-64,44.7-42.91,68.23-95.86,71.69-157.67.5-8.88.07-17.8.07-26.74l.17-140.2V16H745.5V311.12c-1.45-1-2.39-1.63-3.27-2.32A318.12,318.12,0,0,0,683.58,272c-2.81-1.36-3.65-2.89-3.65-5.94q.15-125,.08-250H652.38v242a5.65,5.65,0,0,1-1.19,0c-1-.31-2-.66-3-1q-91.71-31.71-186-9c-132,32-231,144.26-246.35,279.25-.82,7.14-1.49,14.31-2.23,21.47V753.88c.22,1.4.5,2.79.67,4.2,1.58,12.78,2.47,25.67,4.78,38.32,31.36,171.62,192,288.84,364.61,264.38,109.52-15.53,191.2-73.49,244.49-170.38,28.54-51.9,39.83-108.23,38.07-167.28M745.5,721.81c0,1.71.07,3.14,0,4.57-.73,13.9-.43,28-2.38,41.68-18.36,128.9-152.6,208-274.72,162.22A205.14,205.14,0,0,1,335.14,738c0-57.22-.1-114.43.1-171.65a220.55,220.55,0,0,1,2.22-30.25C353.13,426.67,454,348.64,564,362.57c79.53,10.08,135.14,53.78,166.76,127.4,11.43,26.6,15.47,54.8,14.76,83.69-.07,2.69,0,5.38,0,8Z"/><path class="cls-4" d="M679.88,581.75c0-12.5,0-24.84-1.6-36.89C668.44,470.73,597.2,416.63,523,426.61c-71.26,9.6-122.47,68.12-122.48,140q0,85,.06,170a164.6,164.6,0,0,0,1.48,21.61c10.41,76.94,85.44,131.4,161.71,117.51,61.53-11.2,106.58-58.11,114.92-120.28,1.49-11.1,1.43-22.39,1.25-33.66Zm-27.6,140.09c0,9.5.09,18.75-.75,27.86-5,54.42-50.86,97.85-105.46,100.36-64.62,3-117.83-47.7-117.89-112.32q-.07-86,0-172a117.19,117.19,0,0,1,1-15.33c6.73-50.3,46.93-90.26,96.72-96.29,51.87-6.29,100.51,22.77,119,71.16a110.79,110.79,0,0,1,7.4,40.5c0,5.32,0,10.65,0,16V721.84Z"/></g></g></g></g></svg>