<svg fill="none" xmlns="http://www.w3.org/2000/svg">
<g clip-path="url(#clip0_1004_204)">
<path d="M110 64C65.1128 50.908 39.1085 37.2709 -7.5 41C-54.1787 44.7348 -120 82.5 -120 82.5V138.5L1072.5 146.5V0C1072.5 0 1006.53 1.58536 968 16.5C948.535 24.0347 940.316 34.4459 920.5 41C891.648 50.5425 873.388 48.2078 843 48C814.75 47.8068 799.216 39.603 771 41C741.741 42.4487 726.445 51.4848 697.5 56C669.164 60.4202 653.178 63.8386 624.5 64C594.268 64.1702 577.661 58.0678 547.5 56C488.669 51.9666 464.595 69.1419 411 72C365.958 74.4019 335.131 67.0861 295.5 72C244.567 78.3152 214.757 92.9056 164.5 82.5C142.49 77.943 131.577 70.2933 110 64Z" fill="url(#paint0_linear_1004_204)"/>
<path d="M53.5 68.5C17.1334 57.7823 -43.5 72.5 -43.5 72.5L-37 129H1002.5L1037.5 51C1037.5 51 1014.36 48.0426 1002.5 40C993.238 33.7178 969.272 39.3027 948 40C908.404 41.2979 880.041 27.6416 847 49.5C840.972 53.4876 838.599 57.122 832.5 61C804.266 78.9531 774.568 47.5398 747 66.5C737.216 73.2287 719.165 76.7208 700.5 79C684.413 80.9644 675.186 78.1778 659 79C644.699 79.7265 636.775 81.3666 622.5 82.5C606.509 83.7697 597.165 88.4553 581.5 85C569.554 82.365 564.938 74.6692 553 72C530.536 66.9776 517.712 78.7573 495 82.5C481.158 84.7811 473.217 85.059 459.5 88C442.401 91.6661 433.852 98.3264 416.5 100.5C391.765 103.598 376.408 102.571 353 94C341.027 89.6162 335.199 89.1555 323.5 88C312.23 86.8869 306.212 85.187 294.5 88C262.901 95.5899 243.816 90.5643 211.5 94C191.535 96.1226 188.469 89.2799 173.5 88C155.601 86.4696 141.074 90.3792 127.5 88C114.999 85.8088 108.521 88.9771 95 88C77.1399 86.7093 70.6763 73.5621 53.5 68.5Z" fill="url(#paint1_linear_1004_204)"/>
<path d="M34 80C18.277 76.7551 -7 83 -7 83L-21.5 162H1004.5V68.5C1004.5 68.5 982.954 62.361 969 63.5C955.579 64.5955 948.864 69.5177 936 73.5C907.568 82.3019 893.245 98.0509 863.5 97C845.61 96.3679 836.65 88.9898 819 86C793.733 81.72 778.933 78.8516 753.5 82C730.02 84.9066 718.427 93.6623 695.5 99.5C687.33 101.58 682.828 103.192 674.5 104.5C657.911 107.105 648.182 106.421 631.5 104.5C621.038 103.295 615.462 100.705 605 99.5C588.318 97.5787 578.086 94.6798 562 99.5C552.38 102.383 547.91 106.367 539 111C529.543 115.918 525.496 122.142 515 124C402 144 315.5 162 202.5 124C194.139 121.188 190.782 116.539 182.5 113.5C167.378 107.952 157.289 112.186 141.5 109C127.566 106.188 120.466 101.65 106.5 99C91.0941 96.0773 81.5872 99.773 66.5 95.5C52.9706 91.6682 47.7714 82.8421 34 80Z" fill="url(#paint2_linear_1004_204)"/>
</g>
<defs>
<linearGradient id="paint0_linear_1004_204" x1="476" y1="37" x2="476" y2="171.5" gradientUnits="userSpaceOnUse">
<stop stop-color="#001F48"/>
<stop offset="1" stop-color="white"/>
</linearGradient>
<linearGradient id="paint1_linear_1004_204" x1="480.5" y1="21" x2="479" y2="129" gradientUnits="userSpaceOnUse">
<stop stop-color="#001F48"/>
<stop offset="0.3375" stop-color="#3B5373"/>
<stop offset="0.873958" stop-color="#D1E1F8"/>
<stop offset="1" stop-color="white"/>
</linearGradient>
<linearGradient id="paint2_linear_1004_204" x1="491.5" y1="63.3591" x2="491.5" y2="113" gradientUnits="userSpaceOnUse">
<stop stop-color="#B6CBEA"/>
<stop offset="1" stop-color="white"/>
</linearGradient>
<clipPath id="clip0_1004_204">
<rect width="991" height="116" fill="white"/>
</clipPath>
</defs>
</svg>
