<svg width="1280" height="720" xmlns="http://www.w3.org/2000/svg" xmlns:xlink="http://www.w3.org/1999/xlink" overflow="hidden"><defs><clipPath id="clip0"><path d="M240.559-16.9271 345.697 41.9248 286.845 147.062 181.708 88.2104Z" fill-rule="evenodd" clip-rule="evenodd"/></clipPath><clipPath id="clip1"><path d="M240.559-16.9271 345.697 41.9247 286.845 147.062 181.708 88.2104Z" fill-rule="evenodd" clip-rule="evenodd"/></clipPath><clipPath id="clip2"><path d="M240.559-16.9271 345.697 41.9247 286.845 147.062 181.708 88.2104Z" fill-rule="evenodd" clip-rule="evenodd"/></clipPath></defs><g><rect x="0" y="0" width="1280" height="720" fill="#FFFFFF" fill-opacity="0"/><path d="M605.604 9.30961C681.079 9.1812 770.577 46.2954 846.071 116.043L867.542 137.6 448.78 137.6 454.586 109.973C460.866 90.0262 470.981 71.9943 485.129 56.6807 503.992 36.2626 528.24 22.6102 555.937 15.405 571.516 11.3521 588.187 9.3392 605.604 9.30961Z" fill="#EA9C00" fill-rule="evenodd"/><path d="M286.364 3C477.478 3 643.996 53.622 731.064 128.495L741 138 15 138 15 40.9181 43.6881 32.5398C115.827 13.7009 198.496 3 286.364 3Z" fill="#FFCC66" fill-rule="evenodd"/><path d="M924.808 51.5412C930.843 51.4058 936.859 51.4124 942.85 51.5614 1021.8 53.524 1096.47 80.1804 1154.19 131.817L1159.97 137.6 679.323 137.6 691.957 128.592C764.675 79.0765 846.352 53.3011 924.808 51.5412Z" fill="#FCDC56" fill-rule="evenodd"/><path d="M1162.51 87.9076C1187.08 87.7084 1211.37 89.8356 1235.01 94.2921L1239.71 95.2991 1238.38 137.6 970.37 137.6 983.202 130.79C1041.11 102.702 1102.63 88.3935 1162.51 87.9076Z" fill="#FDEB9F" fill-rule="evenodd"/><path d="M392.912 46.7868C414.55 46.6502 436.591 46.9878 458.982 47.8123 532.469 50.5181 609.727 58.4678 688.899 72.1125 769.694 86.0371 846.626 104.883 917.995 127.539L947.252 137.6 14.9314 137.6 14.927 137.6 14.1465 115.738 15.7351 114.971C109.711 71.9279 241.446 47.7422 392.912 46.7868Z" fill="#FEF2BE" fill-rule="evenodd"/><g><g><g><path d="M308.781 87.5469 306.062 88.25C305.547 88.3906 305.031 88.0625 304.938 87.5938L303.766 83.0469 308.312 81.875 309.484 86.4219C309.578 86.8906 309.25 87.4062 308.781 87.5469ZM298.281 95.5625C293.359 95.5625 290.781 94.1562 290.781 93.6875 290.781 93.2188 293.359 91.8125 298.281 91.8125 303.203 91.8125 305.781 93.2188 305.781 93.6875 305.781 94.1562 303.203 95.5625 298.281 95.5625ZM289.141 102.875C287.734 101.375 287.875 98.6562 289.328 95.7969L291.062 103.906C290.266 103.719 289.609 103.391 289.141 102.875ZM316.609 102.922C316.094 100.906 314.031 99.7344 312.062 100.25L309.25 89.375C310.75 89 311.641 87.4531 311.266 85.9531L309.859 80.5156C309.719 80 309.203 79.7188 308.734 79.8594L302.359 81.5C301.844 81.6406 301.562 82.1562 301.703 82.625L303.109 88.0625C303.484 89.5625 305.031 90.4531 306.531 90.0781L307.094 92.3281C305.688 90.7344 301.891 89.9844 298.281 89.9844 293.781 89.9844 288.906 91.1562 288.906 93.7344 288.906 93.875 288.953 94.2031 288.953 94.25L289 94.4375C286.891 98 286.562 101.516 288.438 103.531 289.141 104.281 290.125 104.703 291.25 104.891 291.531 104.938 291.859 104.938 292.141 104.938 295.234 104.938 299.219 103.016 302.5 99.9219 302.594 99.8281 302.688 99.7344 302.781 99.6406L302.781 99.6406C303.016 99.4062 303.25 99.1719 303.484 98.9375 303.531 98.9375 303.625 98.9844 303.672 98.9844 304.188 98.9844 304.609 98.5625 304.609 98.0469 304.609 97.5312 304.188 97.1094 303.672 97.1094 303.156 97.1094 302.734 97.5312 302.734 98.0469 302.734 98.1406 302.734 98.2344 302.781 98.3281 302.547 98.5625 302.312 98.7969 302.078 99.0312 301.891 98.75 301.797 98.4219 301.797 98.0469 301.797 97.0156 302.641 96.1719 303.672 96.1719 304.703 96.1719 305.547 97.0156 305.547 98.0469 305.547 99.0312 304.797 99.8281 303.859 99.9219 303.578 100.203 303.344 100.484 303.109 100.672 299.734 103.859 295.516 105.875 292.188 105.875 291.953 105.875 291.719 105.875 291.484 105.828L291.719 106.953C291.906 108.453 294.766 109.625 298.281 109.625 301.797 109.625 304.656 108.453 304.844 106.953L307.609 94.2031 309.344 100.953C307.328 101.469 306.156 103.531 306.672 105.5L308.547 112.766 318.531 110.188 316.609 102.922Z" fill="#001F48"/></g></g></g><g clip-path="url(#clip0)"><g clip-path="url(#clip1)"><g clip-path="url(#clip2)"><path d="M261.712 58.3442C258.125 59.3567 254.963 60.8947 252.519 62.6911 249.809 48.517 249.444 37.0933 251.848 32.5417 252.592 32.2394 253.446 31.9983 254.301 31.7572 255.155 31.5162 255.947 31.3846 256.802 31.1435 261.06 33.8147 266.782 43.6343 271.931 57.3042 268.799 56.9894 265.3 57.3317 261.712 58.3442ZM233.216 68.1393C230.084 67.8245 226.694 68.2281 223.107 69.2406 222.936 69.2888 222.936 69.2888 222.765 69.337 223.638 55.4426 231.994 42.5718 244.853 35.5304 237.114 42.4176 232.955 54.4729 233.216 68.1393L233.216 68.1393ZM300.831 47.3031C300.66 47.3514 300.66 47.3514 300.489 47.3996 296.902 48.4121 293.74 49.9501 291.296 51.7465L291.296 51.7465C284.373 39.9604 274.415 31.7974 264.327 30.034 278.97 29.3129 292.822 35.9159 300.831 47.3031ZM282.236 117.01 267.772 65.7633C267.675 65.4216 267.518 65.1895 267.421 64.8479 270.189 64.5276 272.651 64.7549 274.136 65.4424 275.472 63.3133 278.879 61.3372 283.04 60.0705 287.311 58.8652 291.187 58.8776 293.439 59.9942 294.775 57.8651 298.182 55.889 302.343 54.6223 306.443 53.4652 310.429 53.5389 312.633 54.4847 305.086 31.9933 281.198 18.9093 256.888 23.2809 255.858 21.2662 253.436 20.1978 251.105 20.7633 248.885 21.3901 247.378 23.5674 247.493 25.9327 224.485 34.9165 210.963 58.5593 216.227 81.787 217.673 79.7192 220.971 77.6818 225.07 76.5246 229.341 75.3193 233.217 75.3317 235.469 76.4483 236.805 74.3192 240.212 72.3431 244.373 71.0764 248.644 69.8711 252.52 69.8835 254.772 71.0001 255.74 69.5281 257.719 68.0472 260.417 66.8246 260.404 67.105 260.501 67.4466 260.597 67.7883L275.061 119.035C275.351 120.06 276.043 120.879 276.81 121.308 277.576 121.737 278.636 121.899 279.661 121.61 281.65 121.141 282.876 118.95 282.236 117.01Z" fill="#001F48"/></g></g></g></g></svg>