<svg xmlns="http://www.w3.org/2000/svg" xmlns:xlink="http://www.w3.org/1999/xlink" viewBox="0 0 1920 1080"><defs><style>.cls-1{fill:none;}.cls-2{clip-path:url(#clip-path);}.cls-3{fill:#fff;}</style><clipPath id="clip-path"><rect class="cls-1" x="58" y="94.74" width="1804" height="890.52"/></clipPath></defs><g id="Layer_1" data-name="Layer 1"><g id="Voluit"><g class="cls-2"><g class="cls-2"><path class="cls-3" d="M58,547.39c.63-6.08,1.2-12.17,1.89-18.25,13-114.71,97.18-210.12,209.34-237.29q80.13-19.41,158.07,7.7c.84.29,1.69.58,2.54.85a4.92,4.92,0,0,0,1,0V94.74h23.47q0,106.22-.06,212.45c0,2.59.71,3.89,3.1,5a269.66,269.66,0,0,1,49.84,31.31c.74.58,1.54,1.09,2.78,2V94.74h23.48V575.35H510c0-2.18-.05-4.46,0-6.75.6-24.55-2.84-48.51-12.55-71.11-26.86-62.57-74.12-99.7-141.69-108.26-93.49-11.84-179.18,54.47-192.51,147.46a185.81,185.81,0,0,0-1.88,25.7c-.18,48.62-.11,97.24-.08,145.86A174.32,174.32,0,0,0,274.52,871.64C378.29,910.56,492.35,843.32,508,733.79c1.66-11.67,1.41-23.61,2-35.42.07-1.21,0-2.43,0-3.88h23.33c0,7.6.36,15.18-.06,22.72-2.94,52.52-22.94,97.52-60.92,134-34.24,32.87-75.41,51.08-122.8,54.38-101.62,7.08-190.89-62.82-208.71-163.39a197.24,197.24,0,0,1-2.89-33c-.3-49.29-.19-98.58-.12-147.87.16-96.49,70.91-179.18,166.27-194.44a197.77,197.77,0,0,1,204,98.25c.43.77.89,1.52,1.7,2.89.11-1.53.23-2.45.23-3.36q0-41.74.06-83.49a6.31,6.31,0,0,0-2.31-5.18c-42-38.18-91.08-60.73-147.59-66-129-12.06-244.34,72.26-272.26,198.62a236.15,236.15,0,0,0-5.68,49.2c-.32,44-.71,88.06-.64,132.09,0,26.61,1.52,53.1,7.9,79.18,24,98.17,106.24,174,205.82,189.52C429.36,979.42,554.21,894.18,583.4,761.8a246,246,0,0,0,5.72-53.22c0-4.67,0-9.33,0-14.16h23.45c0,.41,0,.77,0,1.18,1.49,50.18-8.11,98-32.36,142.15-45.27,82.33-114.68,131.58-207.74,144.77C225.79,1003.31,89.28,903.71,62.63,757.87c-2-10.74-2.73-21.7-4.06-32.56-.15-1.19-.38-2.38-.57-3.56Z"/><rect class="cls-3" x="589.11" y="94.74" width="23.47" height="480.57"/><path class="cls-3" d="M454.21,575.47H430.77c0-4.53,0-9.05,0-13.57a94.63,94.63,0,0,0-6.28-34.43c-15.73-41.1-57.06-65.8-101.14-60.46-42.31,5.12-76.47,39.08-82.18,81.82a98,98,0,0,0-.82,13q-.09,73.08,0,146.17a95.25,95.25,0,0,0,100.18,95.44c46.4-2.13,85.35-39,89.61-85.28.72-7.74.65-15.61.65-23.68h23.52c.15,9.58.21,19.17-1.06,28.6-7.09,52.83-45.37,92.69-97.65,102.21C290.76,837.13,227,790.85,218.17,725.47a139.26,139.26,0,0,1-1.26-18.36q-.15-72.24-.06-144.49c0-61.09,43.53-110.82,104.09-119,63-8.49,123.56,37.48,131.91,100.48,1.36,10.23,1.36,20.72,1.36,31.34"/><path class="cls-3" d="M1153.26,531.48V714.83c0,56.48-40.48,102.6-96.55,110-58.51,7.77-114.41-34.73-122.35-93-8.18-60,30.76-114.19,90.56-124.18,40.51-6.76,74.7,6.45,102.13,37,1.09,1.23,2.11,2.53,3.83,4.59V531.48Zm-198.33,184a87.93,87.93,0,0,0,87.75,87.82c48.65.07,88.15-39.19,88.2-87.67a88,88,0,0,0-176-.15"/><path class="cls-3" d="M1862,825.67h-22.29V782.48l-2.65,3c-30,34.17-67.62,47.65-111.76,36.6s-71.61-40.48-81.13-84.92c-13.12-61.23,30-121.43,92.17-130a110,110,0,0,1,124.9,95.52c.22,1.71.51,3.43.76,5.14Zm-110.33-22.34c48.46,0,87.88-39.27,87.95-87.61a88,88,0,1,0-87.95,87.61"/><path class="cls-3" d="M1468.46,531.48V739.26l.86.58a22.16,22.16,0,0,1,1.69-2.45q56.91-62.25,113.82-124.5a7.3,7.3,0,0,1,6.13-2.65c8.28.17,16.57.06,25.79.06l-84.92,92.83,102.34,122.54c-4.76,0-8.85,0-12.93,0-5.07,0-10.83,1.39-15-.55s-6.84-7.21-10.09-11.09q-38.3-45.82-76.55-91.67c-.78-.94-1.62-1.82-2.64-3l-13.7,15c-11,12-22,23.89-32.83,36a8.08,8.08,0,0,0-1.87,4.89c-.13,16.65-.08,33.3-.08,50.21H1446.7V531.48Z"/><path class="cls-3" d="M1409.26,726.37H1212.17c5.6,32.82,22.43,57.26,53.16,69.71,40,16.22,74.51,5.64,103.52-25.53l15.1,15.76c-24.91,32.42-79.46,53.18-131.21,28.71a109.84,109.84,0,0,1,78.38-204.53c57.18,17,83.61,71.58,78.14,115.88m-22.53-21.87c-4.13-40.27-40.62-79-91.18-76.66-50.83,2.38-80.27,43.79-82.8,76.66Z"/><path class="cls-3" d="M676.41,715.64c.05-60.57,49.4-109.71,110.14-109.68A110,110,0,0,1,896.49,716.14C896.38,776.69,847,825.75,786.2,825.68a110,110,0,0,1-109.79-110m21.76-.15a87.93,87.93,0,0,0,87.72,87.84c48.66.08,88.17-39.18,88.22-87.66a88,88,0,0,0-175.94-.18"/><path class="cls-3" d="M415.11,658.77l5.13-10.87A33.78,33.78,0,0,0,441.66,655c5.43,0,12.07-2.51,12.07-7.64s-5.83-6.34-11.56-7.75c-12.18-2.81-24.75-6.93-24.75-20.52,0-12.57,11.77-18.8,24.24-18.8a41.23,41.23,0,0,1,23.84,6.94l-5.13,10.86a34.93,34.93,0,0,0-18.71-5.23c-3.42,0-9.86,1.31-9.86,6.23,0,4.23,4.73,5.74,11.17,7.25,11.56,2.71,25.44,7,25.44,21s-13.67,20.21-26.75,20.21c-15.59,0-22.93-5.93-26.55-8.84"/><path class="cls-3" d="M515.48,602.44h13.88l28.36,65.17H543.44L539,657.25H505.92l-4.42,10.36H487.12Zm19.11,43.85-7.54-18.6c-2-4.94-4.53-11.47-4.63-11.68-.1.21-2.62,6.74-4.63,11.68l-7.54,18.6Z"/><path class="cls-3" d="M568.27,602.34h14.37l14.29,38.13c1.41,3.71,3.82,10.95,3.92,11.46.2-.51,2.52-7.75,3.92-11.46l14.49-38.13h14.28l-25.35,65.28H593.61Z"/></g></g></g></g></svg>