<?xml version="1.0" encoding="utf-8"?>
<!-- Generator: Adobe Illustrator 27.8.1, SVG Export Plug-In . SVG Version: 6.00 Build 0)  -->
<svg version="1.1" id="Laag_1" xmlns="http://www.w3.org/2000/svg" xmlns:xlink="http://www.w3.org/1999/xlink" x="0px" y="0px"
	 viewBox="0 0 170.1 85" style="enable-background:new 0 0 170.1 85;" xml:space="preserve">
<style type="text/css">
	.st0{fill:#FFFFFF;}
	.st1{fill:#587B26;}
</style>
<g>
	<path class="st0" d="M26.8,34.5L26.8,34.5l-0.1,11.8H17V16.7h9.7v11h0.1l7.9-11h11.8L35.3,30.3L47,46.4H34.8L26.8,34.5z"/>
	<path class="st0" d="M50.7,16.7h20.5V25h-11v2.6h10.4v7.8H60.1v2.8h11.8v8.3H50.7V16.7z"/>
	<path class="st0" d="M77.7,16.7h12.8c1.5,0,2.9,0.1,4.3,0.4c1.4,0.3,2.7,0.8,3.9,1.6c1.1,0.7,2.1,1.7,2.8,3c0.7,1.2,1,2.8,1,4.7
		c0,1.8-0.4,3.4-1.3,4.8c-0.9,1.4-2.2,2.5-3.9,3.2l7.5,12.1H93.4l-5.7-10.6h-0.3v10.6h-9.7V16.7z M87.3,29.2h2c0.3,0,0.7,0,1.1-0.1
		c0.4-0.1,0.8-0.2,1.1-0.4c0.3-0.2,0.6-0.4,0.9-0.8c0.2-0.3,0.4-0.7,0.4-1.3c0-0.5-0.1-1-0.3-1.3c-0.2-0.3-0.4-0.5-0.8-0.7
		c-0.3-0.2-0.6-0.3-1-0.3c-0.4,0-0.7-0.1-1-0.1h-2.4V29.2z"/>
	<path class="st0" d="M109.3,16.7h10l8.5,15.1h0.2l-0.4-15.1h9.5v29.7h-10.2l-8.2-14.2h-0.2l0.4,14.2h-9.5V16.7z"/>
</g>
<g>
	<path class="st0" d="M17.1,53.6H27v2.3h-7.2v3.8h6.8v2.2h-6.8v4.2h7.6v2.4H17.1V53.6z"/>
	<path class="st0" d="M32.4,53.6h3.5l6.9,11.1h0V53.6h2.6v14.9h-3.4L35.1,57h0v11.5h-2.6V53.6z"/>
	<path class="st0" d="M64.2,67.7c-0.8,0.4-1.6,0.6-2.5,0.9c-0.9,0.2-1.9,0.3-3.1,0.3c-1.2,0-2.3-0.2-3.3-0.6s-1.8-0.9-2.6-1.6
		s-1.3-1.5-1.7-2.5c-0.4-1-0.6-2-0.6-3.2c0-1.2,0.2-2.3,0.6-3.2c0.4-1,1-1.8,1.7-2.4c0.7-0.7,1.6-1.2,2.6-1.6c1-0.4,2-0.5,3.2-0.5
		c1.2,0,2.3,0.2,3.3,0.5s1.8,0.8,2.4,1.4l-1.8,2c-0.4-0.4-0.9-0.8-1.6-1.1s-1.4-0.4-2.2-0.4c-0.8,0-1.5,0.1-2.1,0.4
		c-0.6,0.3-1.2,0.7-1.6,1.2s-0.8,1.1-1,1.7c-0.2,0.7-0.4,1.4-0.4,2.1c0,0.8,0.1,1.5,0.4,2.2c0.2,0.7,0.6,1.2,1,1.7s1,0.9,1.7,1.1
		c0.7,0.3,1.4,0.4,2.2,0.4c1.1,0,2.1-0.2,3-0.5v-3.8h-3.1V60h5.7V67.7z"/>
	<path class="st0" d="M69.9,53.6h2.6v14.9h-2.6V53.6z"/>
	<path class="st0" d="M78.3,53.6h3.5l6.9,11.1h0V53.6h2.6v14.9H88L81,57h0v11.5h-2.6V53.6z"/>
	<path class="st0" d="M97.2,53.6h9.8v2.3h-7.2v3.8h6.8v2.2h-6.8v4.2h7.6v2.4H97.2V53.6z"/>
	<path class="st0" d="M112.4,53.6h9.8v2.3h-7.2v3.8h6.8v2.2h-6.8v4.2h7.6v2.4h-10.2V53.6z"/>
	<path class="st0" d="M127.6,53.6h5.2c0.7,0,1.4,0.1,2,0.2c0.7,0.1,1.2,0.4,1.8,0.7c0.5,0.3,0.9,0.8,1.2,1.3c0.3,0.5,0.5,1.2,0.5,2
		c0,1.1-0.3,2-0.9,2.6c-0.6,0.7-1.4,1.1-2.5,1.4l4,6.6h-3.2l-3.4-6.3h-1.9v6.3h-2.6V53.6z M132.5,60c0.4,0,0.8,0,1.1-0.1
		s0.7-0.2,1-0.3c0.3-0.2,0.5-0.4,0.7-0.7s0.3-0.7,0.3-1.1c0-0.4-0.1-0.7-0.3-1c-0.2-0.3-0.4-0.5-0.7-0.6c-0.3-0.2-0.6-0.3-1-0.3
		c-0.4-0.1-0.7-0.1-1-0.1h-2.4V60H132.5z"/>
	<path class="st0" d="M150.9,56.7c-0.3-0.4-0.7-0.7-1.2-0.9c-0.5-0.2-1-0.4-1.5-0.4c-0.3,0-0.6,0-0.9,0.1c-0.3,0.1-0.6,0.2-0.8,0.4
		s-0.5,0.4-0.6,0.6s-0.2,0.6-0.2,0.9c0,0.3,0.1,0.6,0.2,0.9c0.1,0.2,0.3,0.4,0.6,0.6s0.5,0.3,0.9,0.4s0.7,0.3,1.2,0.4
		c0.5,0.2,1,0.3,1.5,0.5c0.5,0.2,1,0.5,1.4,0.8c0.4,0.3,0.8,0.7,1,1.2c0.3,0.5,0.4,1.1,0.4,1.8c0,0.8-0.1,1.5-0.4,2.1
		c-0.3,0.6-0.7,1.1-1.2,1.5s-1.1,0.7-1.7,0.9s-1.4,0.3-2.1,0.3c-1,0-1.9-0.2-2.8-0.5c-0.9-0.4-1.7-0.9-2.3-1.6l1.9-1.8
		c0.4,0.5,0.9,0.9,1.5,1.2c0.6,0.3,1.2,0.4,1.8,0.4c0.3,0,0.6,0,0.9-0.1c0.3-0.1,0.6-0.2,0.9-0.4c0.3-0.2,0.5-0.4,0.6-0.7
		c0.2-0.3,0.2-0.6,0.2-1c0-0.4-0.1-0.7-0.3-1c-0.2-0.3-0.4-0.5-0.7-0.7c-0.3-0.2-0.7-0.4-1.1-0.5s-0.9-0.3-1.3-0.4
		c-0.4-0.1-0.9-0.3-1.3-0.5c-0.4-0.2-0.9-0.5-1.2-0.8c-0.4-0.3-0.6-0.7-0.9-1.2c-0.2-0.5-0.3-1.1-0.3-1.8c0-0.8,0.2-1.4,0.5-2
		c0.3-0.5,0.7-1,1.2-1.4c0.5-0.4,1.1-0.6,1.7-0.8c0.7-0.2,1.3-0.3,2-0.3c0.8,0,1.5,0.1,2.3,0.4c0.8,0.3,1.5,0.7,2,1.2L150.9,56.7z"
		/>
</g>
<circle class="st1" cx="147.4" cy="41" r="5.4"/>
</svg>
