<svg xmlns="http://www.w3.org/2000/svg" viewBox="0 0 3836.58 100">
  <defs>
    <style>
      .cls-1 {
        fill: #fff;
      }

      .cls-2 {
        fill: #001d48;
      }
    </style>
  </defs>
  <g id="Layer_3" data-name="Layer 3">
    <rect className="cls-1" width="3836.58" height="100"/>
  </g>
  <g id="Layer_1" data-name="Layer 1">
    <g>
      <path className="cls-2" d="M63.64,75.82V51.51c0-1.37.27-1.65,1.61-1.65H68a1.12,1.12,0,0,1,1.26,1.25V53.6a6.32,6.32,0,0,0,.77-.14c5.84-1.77,11.67-3.56,17.51-5.3.64-.2.88-.45.84-1.13-.06-1.12,0-2.25,0-3.37s.34-1.31,1.35-1.33h2.89a1.15,1.15,0,0,1,1.31,1.3v53c0,1.87-.16,2-2,2-.64,0-1.29,0-1.93,0-1.32,0-1.59-.27-1.59-1.57q0-8.34,0-16.69V50.92l-3.4,1q-7.41,2.25-14.84,4.48c-.52.16-.88.29-.88,1,0,5.95,0,11.9,0,17.85,0,.13,0,.25.05.5.34,0,.67,0,1,0h7.24a3.59,3.59,0,0,1,3.85,3.86q0,7.57,0,15.15a3.58,3.58,0,0,1-3.83,3.88H26.39a3.58,3.58,0,0,1-3.86-3.94v-15c0-2.57,1.41-4,4-4H63.64Z" transform="translate(-3.42 0.24)"/>
      <path className="cls-2" d="M67.75,24.38c1.36-1.23,1.64-2.12.69-3.57a18.76,18.76,0,0,0-3.37-4c-2.2-1.86-4.61-3.48-7-5.16A3.51,3.51,0,0,1,56.56,8a3.27,3.27,0,0,1,2.9-2.58,3.46,3.46,0,0,1,1.94.34,37.78,37.78,0,0,1,11,8.92,13.59,13.59,0,0,1,3.27,7.46c1.2-.29,2.33-.61,3.48-.85a25.45,25.45,0,0,1,12.59.41c1.56.45,3.06,0,4.58-.08,4.39-.27,8.78-.59,13.17-.9a12.25,12.25,0,0,1,5.72,1.11,106.18,106.18,0,0,1,15.6,8.77,3.7,3.7,0,0,1,1.07,5.19,3.84,3.84,0,0,1-5.21,1.43c-1-.56-2-1.27-3-1.86-3.15-1.81-6.32-3.58-9.47-5.38a9.89,9.89,0,0,0-6.09-1.35c-2.39.24-4.79.34-7.25.71.28.15.57.28.85.44,2.12,1.26,4.29,2.44,6.34,3.81A8.45,8.45,0,0,1,111.66,39c1,4.65,1.9,9.31,2.69,14a3.82,3.82,0,0,1-3.44,4.34,4,4,0,0,1-4.45-3.47c-.71-4.08-1.51-8.14-2.26-12.22a3.17,3.17,0,0,0-1.43-2.18c-8-5.21-16.42-7.2-25.53-3-1.4.64-2.78,1.35-4.11,2.11a5,5,0,0,1-7.21-2.34c-1.29-2.58-2.55-5.17-3.85-7.75-.47-.92-1-1.78-1.51-2.69a2.12,2.12,0,0,0-1.93-1.19,37.69,37.69,0,0,0-10.05.89c-.95.18-1.88.44-2.83.62a3.36,3.36,0,0,1-4-2.57,3.29,3.29,0,0,1,2.41-4A47.36,47.36,0,0,1,58,17.76c4.2.19,7.43,1.8,9.21,5.79.11.24.25.45.38.68A2,2,0,0,0,67.75,24.38Z" transform="translate(-3.42 0.24)"/>
      <path className="cls-2" d="M63.28,37.8a8,8,0,1,1-16,0,8,8,0,0,1,16,0Z" transform="translate(-3.42 0.24)"/>
    </g>
    <g>
      <path className="cls-2" d="M1557.85,49.73l.93.05,25.88.52a4.65,4.65,0,0,1,4.6,3.27,4.56,4.56,0,0,1-4.55,5.78c-5.59-.1-11.19-.23-16.78-.35q-10.31-.2-20.61-.41a.83.83,0,0,0-.91.62c-.94,2.14-1.86,4.3-3,6.36a14.69,14.69,0,0,1-2.32,3,5,5,0,0,1-5.48,1.42,41.34,41.34,0,0,1-5.88-2.43c-3.55-1.87-7-3.9-10.49-5.93a4.46,4.46,0,1,1,4.52-7.7l11.11,6.13c.3.17.62.3,1,.49l.12-.22a40.3,40.3,0,0,0,3.88-11.54c.79-5.84,3.56-10.82,6.41-15.79.14-.25.3-.49.56-.93-1.05.28-1.9.55-2.77.72a8.59,8.59,0,0,0-5.43,3.32c-1.3,1.68-2.78,3.23-4.16,4.85a3.81,3.81,0,0,1-5.18.61,3.71,3.71,0,0,1-.9-5.19,52,52,0,0,1,7.7-8.53,7.83,7.83,0,0,1,2.47-1.39,47.62,47.62,0,0,1,14-3,19.18,19.18,0,0,1,9.2,1.9,58.37,58.37,0,0,0,8.17,3.34,20.11,20.11,0,0,0,13.46-.78c1.56-.61,3.14-1.17,4.7-1.78a3.94,3.94,0,0,1,5.29,2,3.89,3.89,0,0,1-2.4,5.18,99.53,99.53,0,0,1-10.37,3.38,26.05,26.05,0,0,1-13.42-.71,1.17,1.17,0,0,0-1.5.43c-1.47,2.12-3,4.17-4.4,6.37-1.2,2-2.15,4.09-3.21,6.15A5.65,5.65,0,0,0,1557.85,49.73Z" transform="translate(-3.42 0.24)"/>
      <path className="cls-2" d="M1552.81,92V66.67c0-1.59.44-2,2-2,.58,0,1.17,0,1.76,0,1.32,0,1.83.52,1.83,1.84v25.6h5c2.59,0,2.67.08,2.67,2.7v1.11c0,1.21-.56,1.77-1.76,1.77-3.91,0-7.83,0-11.74,0-1.94,0-3.89,0-5.83,0-1.31,0-1.82-.53-1.84-1.85,0-.69,0-1.39,0-2.08,0-1.18.54-1.71,1.72-1.72,1.81,0,3.62,0,5.43,0C1552.29,92,1552.5,92,1552.81,92Z" transform="translate(-3.42 0.24)"/>
      <path className="cls-2" d="M1576.84,15.46a9,9,0,1,1-9-9A9,9,0,0,1,1576.84,15.46Z" transform="translate(-3.42 0.24)"/>
    </g>
    <g>
      <path className="cls-2" d="M1065.54,38.72l-6-8.54c-.24-.34-.62-.67-.65-1s0-1.15.34-1.36a1.53,1.53,0,0,1,1.4.11,4.86,4.86,0,0,1,1,1.37l6.13,8.66,11.33-4.41c7.07-2.75,14.13-5.54,21.23-8.22a8.22,8.22,0,0,1,3.36-.3,28.79,28.79,0,0,1,3.77.72,3.82,3.82,0,0,1,3.13,4.78c-1.83,9.28-3.67,18.56-5.53,27.93l4,2.21c3.33,1.84,6.65,3.68,10,5.48a5.45,5.45,0,0,1,2.71,3.22c2.33,6.89,4.71,13.76,7.06,20.63,1,2.9-.2,5.61-2.82,6.5s-5.21-.47-6.2-3.37q-3.07-9-6.11-18.07a3,3,0,0,0-1.51-1.81c-5.52-3-11-6-16.52-9-2.59-1.43-3.33-2.93-2.79-5.79q2.17-11.33,4.36-22.64c.06-.32.09-.64.17-1.16l-25.07,9.77,2.48,3.54c.52.72,1.2,1.52.15,2.23s-1.54-.25-2-1c-.67-.95-1.4-1.86-2-2.85s-1.07-1.06-2.08-.65a3.79,3.79,0,0,1-5.43-3.32A4.1,4.1,0,0,1,1065.54,38.72Z" transform="translate(-3.42 0.24)"/>
      <path className="cls-2" d="M1034.48,40.18c-1.41,7.08-2.74,13.81-4.1,20.53a12,12,0,0,1-.93,2.81c-3.09,6.35-6.23,12.68-9.36,19-1.28,2.58-2.81,3.42-5.67,3.22Q1003.72,85,993,84.32a4.84,4.84,0,0,1-4.8-5.2c.21-2.73,2.52-4.53,5.47-4.33q9.09.63,18.19,1.17a1.41,1.41,0,0,0,1.09-.65q3.06-6,6-12.11a2.58,2.58,0,0,0,0-1.24,13,13,0,0,1-.35-3.35c1.88-10.12,3.86-20.21,5.8-30.32.54-2.79,2.07-3.88,4.85-3.36,1.18.23,2.34.53,3.52.69a4.59,4.59,0,0,1,3.55,2.57c2.41,4.24,4.92,8.42,7.3,12.68a3.18,3.18,0,0,0,2.56,1.75c4.39.75,8.77,1.6,13.15,2.43a3.76,3.76,0,0,1,3.29,4.44,3.69,3.69,0,0,1-4.48,3.06c-5.57-1-11.12-2-16.68-3.07a4.09,4.09,0,0,1-2.9-2.14C1037.32,45.05,1036,42.78,1034.48,40.18Z" transform="translate(-3.42 0.24)"/>
      <path className="cls-2" d="M1090.71,62.77c1.62,3.26,4.91,4.06,7.53,5.78,0,.08.07.18,0,.23-2.24,4.56-4.45,9.14-6.74,13.67a4.54,4.54,0,0,1-4.62,2.54q-11.07-.69-22.13-1.47a4.81,4.81,0,0,1-4.54-3.43A4.76,4.76,0,0,1,1062,74.9a5.31,5.31,0,0,1,3.76-.92c5.89.42,11.79.77,17.68,1.2a1.39,1.39,0,0,0,1.59-1c1.62-3.39,3.31-6.75,5-10.12C1090.18,63.71,1090.41,63.33,1090.71,62.77Z" transform="translate(-3.42 0.24)"/>
      <path className="cls-2" d="M1030.05,68.77l3.58-8.92,4.21,2.31c2.43,1.33,4.91,2.56,7.24,4a5.94,5.94,0,0,1,2.37,2.7c2.52,7.08,4.9,14.21,7.28,21.34a4.5,4.5,0,0,1-1.38,5.18,4.59,4.59,0,0,1-5.21.66,5,5,0,0,1-2.61-3.29c-2-5.87-4-11.73-5.94-17.61a3.57,3.57,0,0,0-1.89-2.25C1035.1,71.59,1032.55,70.14,1030.05,68.77Z" transform="translate(-3.42 0.24)"/>
      <path className="cls-2" d="M1022.22,26.9c-.53,2.79-1,5.46-1.58,8.12a1.54,1.54,0,0,1-.88.87q-12.48,4.9-25,9.75a3.8,3.8,0,1,1-2.9-7c10-3.92,20-7.79,30-11.68A1.81,1.81,0,0,1,1022.22,26.9Z" transform="translate(-3.42 0.24)"/>
      <path className="cls-2" d="M1112.86,32.18a58.88,58.88,0,0,1,3.48,6.08,7.45,7.45,0,0,0,6.93,5c3.44.29,6.82,1.21,10.23,1.84,2.39.44,3.86,2.29,3.5,4.44a3.84,3.84,0,0,1-4.81,3.07c-5.4-1-10.79-2-16.19-3a4.87,4.87,0,0,1-3.15-2.16,8.36,8.36,0,0,1-1.44-8.19A61.18,61.18,0,0,0,1112.86,32.18Z" transform="translate(-3.42 0.24)"/>
      <path className="cls-2" d="M1033.22,22.81a7.74,7.74,0,1,1,7.79-7.68A7.72,7.72,0,0,1,1033.22,22.81Z" transform="translate(-3.42 0.24)"/>
      <path className="cls-2" d="M1107.42,22.81a7.74,7.74,0,1,1,.16-15.47,7.74,7.74,0,0,1-.16,15.47Z" transform="translate(-3.42 0.24)"/>
    </g>
    <g>
      <path className="cls-2" d="M556.61,56.78l-4,4.47c-2.08,2.32-4.19,4.63-6.23,7a7.58,7.58,0,0,1-5.57,2.45c-.64,0-1.29,0-1.93,0-6.92,0-13.84,0-20.76,0a5.2,5.2,0,0,1-5-2.89,5.13,5.13,0,0,1,4.51-7.5q9.18,0,18.35,0a1.17,1.17,0,0,0,1-.44l26.87-31.2c.09-.1.17-.21.31-.38-.21,0-.36,0-.51,0-2,0-4.1,0-6.15,0a1.36,1.36,0,0,0-.85.4q-6.14,7-12.22,14.09a4.05,4.05,0,1,1-6.2-5.22q5.85-6.75,11.73-13.48l2.17-2.5a4.15,4.15,0,0,1,3.24-1.49h19.43a5.39,5.39,0,0,1,3.93,1.7L590.5,33.62c.15.15.28.33.57.68a4.72,4.72,0,0,1,.42-.67q4.75-4.77,9.53-9.52a4.18,4.18,0,1,1,5.91,5.9c-4,4-7.9,8-11.88,12a8.52,8.52,0,0,1-2.37,1.72,4,4,0,0,1-4.76-1c-2.38-2.35-4.73-4.72-7.08-7.09-.16-.16-.28-.35-.47-.58l-12,13.88.43.46c3.3,3.31,6.56,6.65,9.92,9.9a6.33,6.33,0,0,1,1.75,6.41c-1.54,6.88-3.11,13.76-4.66,20.64-.57,2.51-1.11,5-1.71,7.53a5.2,5.2,0,0,1-9.3,1.81,5,5,0,0,1-.8-4.3q2.43-10.86,4.88-21.7a1.25,1.25,0,0,0-.38-1.36c-3.81-3.67-7.59-7.37-11.38-11.06Z" transform="translate(-3.42 0.24)"/>
      <path className="cls-2" d="M554.49,10.69c2.18,1,4.21.53,6.2-.2a15.86,15.86,0,0,0,5.06-3,4.42,4.42,0,0,1,4.67-.79,14.75,14.75,0,0,1,5.24,3.14l1.55,1.42a8.43,8.43,0,0,1,2.7-3.5,8.08,8.08,0,1,1-3,4.43c.16-.59,0-.73-.52-.85a7.61,7.61,0,0,0-4.1.23,14.89,14.89,0,0,0-5.76,3.08c-1.85,1.65-3.8,1.62-5.87.72a17.61,17.61,0,0,1-6-4.43A1.62,1.62,0,0,1,554.49,10.69Z" transform="translate(-3.42 0.24)"/>
    </g>
    <g>
      <path className="cls-2" d="M2047.07,25.81a8,8,0,1,0-16,0h0a8,8,0,1,0,16,0Z" transform="translate(-3.42 0.24)"/>
      <path className="cls-2" d="M1973.73,86.25h111.33V80.66h-4a4.74,4.74,0,0,0-6.56,0h-3.21a4.74,4.74,0,0,0-6.56,0h-3.21a4.75,4.75,0,0,0-6.57,0h-3.2a4.75,4.75,0,0,0-6.57,0H2042a4.75,4.75,0,0,0-6.57,0h-3.2a4.75,4.75,0,0,0-6.57,0h-3.2a4.75,4.75,0,0,0-6.57,0h-3.2a4.75,4.75,0,0,0-6.57,0h-3.2a4.75,4.75,0,0,0-6.57,0h-3.2a4.75,4.75,0,0,0-6.57,0h-5.24V79h-7.63" transform="translate(-3.42 0.24)"/>
      <path className="cls-2" d="M2011.86,36a3.09,3.09,0,0,1,2.51-.12l1.77.69a.93.93,0,0,1,.52,1.2.87.87,0,0,1-.25.35l-17,15.15a7.7,7.7,0,0,0,5.13,13.45L2033.4,65l22.37,8.44a4.62,4.62,0,0,0,3.26-8.65l-22.37-8.43a9.19,9.19,0,0,0-4-.57l-11.85,1a.91.91,0,0,1-1-.84.94.94,0,0,1,.3-.77l11.66-10.39a7.69,7.69,0,0,0-2.33-12.92l-14.27-5.57a6.13,6.13,0,0,0-5,.24l-19.62,9.89a4.62,4.62,0,0,0,4.16,8.26Z" transform="translate(-3.42 0.24)"/>
    </g>
    <g>
      <path className="cls-2" d="M2499.71,25l-3.18-11.59a2.28,2.28,0,1,1,4.27-1.56q3.4,7.3,6.81,14.61a3.38,3.38,0,0,1-2.54,5c-4,.74-8,1.42-12,2.13l-.66.14c.78,2.35,1.62,4.64,2.29,7a60.54,60.54,0,0,1,2.15,11.39,1.3,1.3,0,0,0,.45.82q8.54,7.09,17.1,14.17a3.91,3.91,0,0,1,1.43,3q.33,12.52.65,25a3,3,0,0,1-2.23,3.24,3,3,0,0,1-3.74-2.35c-.56-3.07-1-6.15-1.53-9.22-.69-4.23-1.37-8.46-2.08-12.69a1,1,0,0,0-.4-.69c-3.69-2.06-7.4-4.08-11.21-6.18-.2,1.17-.34,2.26-.57,3.33q-1.38,6.48-2.79,12.94a6.72,6.72,0,0,1-.64,2,4.72,4.72,0,0,1-1.52,1.7c-6.14,3.63-12.32,7.2-18.5,10.78A3,3,0,1,1,2468,92.9c4.62-3.45,9.18-7,13.88-10.32a4.38,4.38,0,0,0,2.07-4.2,126.56,126.56,0,0,0-6.61-36.28c-.06-.17-.14-.32-.24-.55-1.73,1.37-3.42,2.69-5.08,4.06-.15.13-.12.57-.06.84.89,4,1.8,7.95,2.7,11.92.1.41.18.81.27,1.22a2.53,2.53,0,0,1-1.76,3,2.5,2.5,0,0,1-3.11-1.76c-.64-2-1.24-4.07-1.86-6.11-1-3.23-1.91-6.47-2.92-9.69a3.52,3.52,0,0,1,.88-3.86c2.61-2.56,5.15-5.22,7.85-7.69a25.34,25.34,0,0,1,11.67-5.77c4.34-1,8.75-1.71,13.13-2.54Z" transform="translate(-3.42 0.24)"/>
      <path className="cls-2" d="M2488.94,20.19a7,7,0,1,1-7-7A7,7,0,0,1,2488.94,20.19Z" transform="translate(-3.42 0.24)"/>
      <path className="cls-2" d="M2495.78,14a15.1,15.1,0,0,0-1.52.4c-1,.4-2,.85-3.06,1.28-.07,0-.16,0-.22.08-.72.61-.72.61-1.22-.21-.15-.24-.29-.49-.44-.74-.49-.82-.47-.77.38-1.21.39-.21.64-.66,1-.94.53-.42,1.08-.81,1.64-1.19s.94-.64,1-1.37a1.54,1.54,0,0,1,.72-.93c1.83-1.14,3.67-2.24,5.53-3.33a1.47,1.47,0,0,1,2.24.59c.39.62.76,1.24,1.13,1.87a1.58,1.58,0,0,1-.61,2.48c-.26.17-.53.32-.79.47-1.33-1.67-2.55-2.22-4-1.63C2495.44,10.53,2495.22,12.25,2495.78,14Z" transform="translate(-3.42 0.24)"/>
    </g>
    <g>
      <path className="cls-2" d="M2935.63,26.54a9.07,9.07,0,1,0-18.13-.05v.05a9.07,9.07,0,0,0,18.13.05Z" transform="translate(-3.42 0.24)"/>
      <path className="cls-2" d="M2971.53,44.15a55.79,55.79,0,0,0-28.74-28.73c-.05.09-.09.19-.14.28l-5,9.57a11.16,11.16,0,0,0-8.15-9.51l2.05-3.95a100.9,100.9,0,0,0-22-2.63l6.84,12.61a11.19,11.19,0,0,0,13.5,15.42A44.17,44.17,0,0,1,2933.75,53l7.65-2.15a5.81,5.81,0,0,1,7.17,4,6.44,6.44,0,0,1,.19,1L2950.58,76A5.81,5.81,0,0,1,2939,77l-1.11-12.33a.7.7,0,0,0-.76-.63l-.12,0-9.4,2.65L2922,81a4.63,4.63,0,0,1-.79,1.31l-12.27,14.39a5.81,5.81,0,0,1-8.84-7.54l11.51-13.5,4-10.15a27.84,27.84,0,0,0-1.43-23.5L2899,13.94a5.77,5.77,0,0,1-.51-4.25l-1.65.18-.27-2.31q1.63-.19,3.27-.33a5.81,5.81,0,0,1,8.16-.38,103.23,103.23,0,0,1,24.76,2.85,5.81,5.81,0,0,1,10.58,3.41,58.11,58.11,0,0,1,30.36,30.11,139.45,139.45,0,0,1,11.68,53.34l-2.32,0a137.15,137.15,0,0,0-11.49-52.45Z" transform="translate(-3.42 0.24)"/>
    </g>
    <g>
      <circle className="cls-2" cx="3411.52" cy="29.04" r="8.07"/>
      <path className="cls-2" d="M3407.85,71.64l-8,5.67-12.32.87v5.06l13.5,1.45a3.65,3.65,0,0,0,2.14-.68l9.49-6.73A17.55,17.55,0,0,1,3407.85,71.64Z" transform="translate(-3.42 0.24)"/>
      <path className="cls-2" d="M3420.87,46l8.6,1.8,8.09,12.13,4.85-3L3435,42.56a3.7,3.7,0,0,0-2.4-1.69l-13.05-2.71a3.16,3.16,0,0,0-.76-.08h-10l-13-5.2,1.75-13,29.92-12.33-.9-2.19-61.17,25.23.9,2.19,25.1-10.36-3.48,12a3.69,3.69,0,0,0,2.24,4.16l16.38,6.57-.14,17.3a17,17,0,0,0,7.07,13.92l10.92,7.83-1.48,13.68,5.46.82L3432,83.08a3.63,3.63,0,0,0-1.5-3.53l-10.92-7.86a3.86,3.86,0,0,0,.27-1.23Z" transform="translate(-3.42 0.24)"/>
    </g>
  </g>
</svg>
