<svg width="100" height="100" viewBox="0 0 100 100" fill="none" xmlns="http://www.w3.org/2000/svg">
    <path fill-rule="evenodd" clip-rule="evenodd" d="M100 50C100 77.6142 77.6142 100 50 100C22.3858 100 0 77.6142 0 50C0 22.3858 22.3858 0 50 0C77.6142 0 100 22.3858 100 50ZM15 50.5C15 54.6421 18.3579 58 22.5 58H42.5V78C42.5 82.1421 45.8579 85.5 50 85.5C54.1421 85.5 57.5 82.1421 57.5 78V58H77.5C81.6421 58 85 54.6421 85 50.5C85 46.3579 81.6421 43 77.5 43H57.5V23C57.5 18.8579 54.1421 15.5 50 15.5C45.8579 15.5 42.5 18.8579 42.5 23V43H22.5C18.3579 43 15 46.3579 15 50.5Z" fill="currentColor"/>
</svg>
