<svg width="100" height="100" viewBox="0 0 100 100" fill="none" xmlns="http://www.w3.org/2000/svg">
<path fill-rule="evenodd" clip-rule="evenodd" d="M63.7064 13.8964L86.1038 36.2939L32.6962 89.701C32.4514 89.9458 31.7711 90.6261 30.8171 90.8693C30.7067 90.9224 30.5938 90.9677 30.482 91.0031L2.60894 99.8861C1.82889 100.133 1.04502 99.9731 0.536529 99.4638C0.0263994 98.9545 -0.131467 98.1714 0.112555 97.3911L8.99551 69.5204C9.03341 69.4061 9.07867 69.2949 9.12938 69.1867C9.37367 68.231 10.052 67.5526 10.2996 67.3062L20.3364 57.2693L25.2872 52.3188L63.7064 13.8964ZM12.0192 74.1944L25.8069 87.98L14.1974 91.6818L8.3207 85.8042L12.0192 74.1944ZM59.9757 22.7982C60.7669 22.0045 62.053 22.0045 62.8459 22.7982C63.6385 23.5903 63.6385 24.8761 62.8459 25.6698L21.2108 67.3034C20.4188 68.0963 19.1318 68.0963 18.3398 67.3034C17.5477 66.5106 17.5477 65.2245 18.3398 64.4316L59.9757 22.7982Z" fill="white"/>
<path fill-rule="evenodd" clip-rule="evenodd" d="M89.8364 32.5611L97.8747 24.5217C100.408 21.9882 100.721 18.1792 98.5743 16.0327L83.9703 1.42616C81.8205 -0.721248 78.014 -0.407975 75.4805 2.12551L67.439 10.1657L89.8364 32.5611ZM12.0192 74.1944L25.8069 87.98L14.1974 91.6818L8.3207 85.8042L12.0192 74.1944Z" fill="white"/>
</svg>
